<?xml version="1.0" encoding="UTF-8" standalone="no"?>
<!-- Created with Inkscape (http://www.inkscape.org/) -->

<svg
   xmlns:dc="http://purl.org/dc/elements/1.1/"
   xmlns:cc="http://creativecommons.org/ns#"
   xmlns:rdf="http://www.w3.org/1999/02/22-rdf-syntax-ns#"
   xmlns:svg="http://www.w3.org/2000/svg"
   xmlns="http://www.w3.org/2000/svg"
   xmlns:sodipodi="http://sodipodi.sourceforge.net/DTD/sodipodi-0.dtd"
   xmlns:inkscape="http://www.inkscape.org/namespaces/inkscape"
   width="520"
   height="136"
   id="svg3301"
   version="1.1"
   inkscape:version="0.48.5 r10040"
   sodipodi:docname="New document 2">
  <defs
     id="defs3303" />
  <sodipodi:namedview
     id="base"
     pagecolor="#ffffff"
     bordercolor="#666666"
     borderopacity="1.0"
     inkscape:pageopacity="0.0"
     inkscape:pageshadow="2"
     inkscape:zoom="0.35"
     inkscape:cx="375"
     inkscape:cy="520"
     inkscape:document-units="px"
     inkscape:current-layer="layer1"
     showgrid="false"
     inkscape:window-width="1440"
     inkscape:window-height="834"
     inkscape:window-x="0"
     inkscape:window-y="27"
     inkscape:window-maximized="1" />
  <metadata
     id="metadata3306">
    <rdf:RDF>
      <cc:Work
         rdf:about="">
        <dc:format>image/svg+xml</dc:format>
        <dc:type
           rdf:resource="http://purl.org/dc/dcmitype/StillImage" />
        <dc:title></dc:title>
      </cc:Work>
    </rdf:RDF>
  </metadata>
  <g
     inkscape:label="Layer 1"
     inkscape:groupmode="layer"
     id="layer1"
     transform="translate(0,-916.36218)">
    <g
       id="g2923"
       transform="matrix(1.25,0,0,-1.25,498.11087,1024.5154)">
      <path
         d="m 0,0 c -0.399,-1.041 -1.069,-1.988 -2.018,-2.828 l 17.977,0 c -1.592,1.232 -1.896,5.193 -1.896,6.784 l 0,16.82 c 0,4.132 -1.194,7.418 -3.583,9.849 -2.386,2.436 -5.61,3.661 -9.659,3.661 -1.621,0 -3.178,-0.299 -4.681,-0.895 -1.507,-0.6 -3.083,-1.548 -4.722,-2.839 l -0.297,3.734 c -1.766,-0.277 -3.619,-0.477 -5.559,-0.618 -1.936,-0.133 -4.164,-0.207 -6.676,-0.207 l -3.506,0 c 0.918,-0.844 1.585,-1.802 1.995,-2.873 0.411,-1.065 0.618,-2.408 0.618,-4.026 l 0,-22.606 c 0,-1.591 -0.203,-2.91 -0.599,-3.956 -0.4,-1.041 -1.07,-1.988 -2.014,-2.828 l 18.65,0 C -6.891,-1.988 -7.554,-1.041 -7.965,0 -8.379,1.046 -8.582,2.365 -8.582,3.956 l 0,11.713 c 0,4.549 0.321,7.491 0.954,8.824 0.633,1.333 1.773,1.995 3.412,1.995 1.743,0 2.98,-0.8 3.712,-2.384 C 0.23,22.51 0.6,19.697 0.6,15.669 L 0.6,3.956 C 0.6,2.365 0.399,1.046 0,0"
         style="fill:#ffffff;fill-opacity:1;fill-rule:nonzero;stroke:none"
         id="path2925"
         inkscape:connector-curvature="0" />
    </g>
    <g
       id="g2927"
       transform="matrix(1.25,0,0,-1.25,130.1025,938.12806)">
      <path
         d="m 0,0 c 0,0 -1.799,0.267 -14.768,0.267 0,0 -3.782,-1.492 -11.518,-1.492 -11.887,0 -13.079,1.14 -35.793,-6.063 0,0 27.148,5.49 67.482,0.445 0,0 -30.97,1.08 -43.939,-5.4 0,0 30.744,3.768 41.741,-8.646 0,0 6.743,11.351 21.274,3.127 0.123,-0.077 0.251,-0.159 0.377,-0.244 0,0 -6.033,8.043 1.548,7.017 2.272,-0.303 4.241,-3.823 11.007,-3.823 0,0 -26.966,13.373 -13.998,22.018 0,0 -81.735,15.075 -127.495,-27.019 0,0 37.817,33.296 104.082,19.813"
         style="fill:#ffffff;fill-opacity:1;fill-rule:nonzero;stroke:none"
         id="path2929"
         inkscape:connector-curvature="0" />
    </g>
    <g
       id="g2931"
       transform="matrix(1.25,0,0,-1.25,309.87363,1011.2757)">
      <path
         d="m 0,0 0,6.348 c 0,2.882 0.703,4.555 1.884,5.732 1.921,1.929 4.615,3.972 9.135,2.457 l 3.275,8.211 c 0,0 -4.611,2.108 -9.387,0.396 C 4.853,23.128 4.805,23.11 4.752,23.091 4.74,23.084 4.729,23.084 4.715,23.08 4.167,22.892 3.664,22.666 3.189,22.385 1.81,21.566 0.747,20.349 0,18.728 l -0.297,4.966 c -1.767,-0.277 -3.618,-0.477 -5.558,-0.617 -1.947,-0.134 -4.167,-0.207 -6.677,-0.207 l -3.435,0 c 0.897,-0.819 1.543,-1.759 1.944,-2.814 0.396,-1.062 0.595,-2.417 0.595,-4.086 l 0,-22.606 c 0,-1.591 -0.199,-2.909 -0.595,-3.956 -0.401,-1.041 -1.078,-1.988 -2.017,-2.828 l 23.302,0 C 1.311,-10.308 0,-4.337 0,0"
         style="fill:#ffffff;fill-opacity:1;fill-rule:nonzero;stroke:none"
         id="path2933"
         inkscape:connector-curvature="0" />
    </g>
    <g
       id="g2935"
       transform="matrix(1.25,0,0,-1.25,220.88562,981.94031)">
      <path
         d="m 0,0 c 0,0 1.539,-5.292 1.539,-12.128 0,-6.84 -6.384,-32.395 13.528,-28.779 0,0 -8.268,0.428 -7.098,9.714 C 12.113,1.662 0,0 0,0"
         style="fill:#ffffff;fill-opacity:1;fill-rule:nonzero;stroke:none"
         id="path2937"
         inkscape:connector-curvature="0" />
    </g>
    <g
       id="g2939"
       transform="matrix(1.25,0,0,-1.25,279.49637,991.00343)">
      <path
         d="m 0,0 0.541,0.438 c 1.584,-1.848 4.286,-5.16 6.587,-8.761 -2.057,5.788 -8.623,19.475 -25.911,24.96 -4.867,1.543 -10.289,2.342 -16.118,2.368 -5.756,0.03 -10.778,0.715 -14.93,2.033 -5.07,1.606 -8.624,4.119 -9.985,7.087 -0.734,1.58 -0.792,3.212 -0.17,4.697 2.164,5.156 14.396,6.358 16.817,6.548 l -0.059,0.291 c -2.066,-0.07 -14.668,-0.725 -23.902,-5.888 -0.348,-0.189 -0.675,-0.385 -0.999,-0.592 l 0,0.004 0,-0.008 c -2.599,-1.614 -4.449,-3.486 -5.567,-5.626 -4.197,-3.186 -10.378,-5.803 -17.196,-1.751 0,0 6.911,-12.945 21.66,-11.184 l 0,0.008 c 0.725,-1.447 1.744,-2.961 3.153,-4.531 -0.388,1.055 -0.844,2.473 -1.085,3.787 l 0.622,0.263 c 0.049,-0.064 5.77,-7.618 10.389,-9.368 -1.392,1.129 -2.571,4.123 -3.508,6.267 l -0.497,1.131 1.014,-0.71 c 3.362,-4.752 8.655,-6.963 9.269,-7.028 -0.808,2.672 -0.797,5.592 -0.797,5.592 l 0.708,-0.037 c 0.067,-0.004 6.823,-0.418 13.116,-2.414 5.567,-1.769 9.623,-4.845 10.348,-6.906 0.562,2.276 -0.525,5.449 -2.931,6.496 l -0.044,0.318 c 10.985,-1.233 29.454,-23.417 12.103,-38.891 -16.596,-14.808 -43.029,-1.758 -50.077,24.661 -4.219,15.811 -15.13,18.383 -22.724,21.573 11.251,-7.054 17.554,-15.778 19.049,-26.962 0.563,-4.238 1.447,-7.988 2.58,-11.329 -3.479,4.892 -6.551,11.451 -6.551,11.451 3.098,-13.246 11.702,-23.458 11.702,-23.458 2.688,-3.305 4.069,-4.097 4.546,-3.534 16.877,-15.489 44.739,-6.477 49.561,-2.557 -0.351,-0.57 -0.695,-1.126 -1.022,-1.647 -1.602,-2.654 -3.485,-4.675 -4.748,-5.878 2.495,1.062 4.667,2.55 6.57,4.264 -0.323,-1.578 -0.67,-2.673 -0.67,-2.673 1.588,2.073 2.894,4.135 3.974,6.156 5.161,6.336 7.332,13.542 7.37,13.66 0.536,1.739 0.5,2.269 0.455,2.417 -0.14,-0.034 -0.351,-0.181 -0.615,-0.418 C 5.447,-16.351 4.878,-6.347 0,0 m -54.938,33.021 c 1.842,-0.58 4.156,-2.113 5.481,-6.006 0.388,2.872 1.865,7.89 7.302,10.363 l -0.03,0.052 c -1.429,-0.119 -9.319,-0.933 -14.157,-4.116 0.397,-0.04 0.881,-0.129 1.404,-0.293 m 38.839,-8.512 c 0.709,-0.225 1.509,-0.366 2.28,-0.448 -4.854,1.818 -9.711,6.37 -12.984,9.435 -1.296,1.217 -2.324,2.172 -2.843,2.461 -0.348,0.192 -0.696,0.355 -1.065,0.47 -0.622,0.192 -1.221,0.262 -1.858,0.333 l -0.119,0.014 c -0.747,0.089 -1.487,0.186 -2.346,0.456 -0.315,0.096 -0.63,0.222 -0.937,0.352 -3.141,1.361 -4.585,3.156 -3.978,4.926 0.68,1.939 4.781,1.328 5.241,1.247 l 0.118,-0.019 0.085,-0.089 c 0.733,-0.788 1.166,-2.046 1.359,-2.723 0.399,0.192 1.065,0.396 2.053,0.358 0.145,-0.007 0.278,-0.029 0.401,-0.07 1.053,-0.333 1.142,-1.71 1.098,-2.543 0.489,0.333 0.718,0.804 0.807,1.037 -1.77,2.487 -3.989,3.597 -5.544,4.093 -2.232,0.707 -4.589,0.6 -6.007,-0.274 -0.622,-0.384 -0.996,-0.881 -1.088,-1.447 -0.411,-2.557 0.936,-4.363 4.655,-6.236 0.708,-0.359 1.47,-0.663 2.322,-0.937 1.066,-0.336 2.106,-0.566 3.004,-0.751 l 0.334,-0.074 c 0.814,-0.166 1.517,-0.311 2.109,-0.499 0.659,-0.211 1.101,-0.453 1.389,-0.763 1.095,-1.181 3.453,-2.894 7.361,-5.737 l 0.065,-0.048 c 2.06,-1.495 3.294,-3.408 4.013,-4.955 -0.251,1.225 -0.599,2.035 -0.606,2.047 l -0.323,0.735 0.759,-0.266 c 0.081,-0.03 0.159,-0.059 0.245,-0.085 M -50.05,50.002 c -5.089,1.865 -12.869,3.19 -21.448,-0.785 0.882,0.071 1.962,0.156 2.877,0.082 1.642,-0.133 4.201,-0.57 5.688,-1.121 0.655,-0.237 1.085,-0.481 1.31,-0.752 0.185,-0.214 0.4,-0.366 0.644,-0.463 0.408,-0.144 0.755,-0.066 0.762,-0.066 l 0.037,0.012 0.045,0 c 5.547,-0.005 10.778,-0.378 14.338,-1.019 2.424,-0.432 3.668,-0.54 4.293,-0.548 -1.221,0.944 -4.293,3.109 -8.546,4.66 m 24.339,-23.731 c -1.569,-0.322 -3.86,-0.677 -3.978,-0.692 l -0.67,-0.104 0.306,0.6 1.251,2.432 -2.96,-0.111 -0.5,-0.02 0.159,0.475 0.658,1.991 -1.546,-0.193 -0.178,-0.026 -0.119,0.137 c -1.924,2.073 -6.717,5.052 -7.646,5.618 -1.184,-0.558 -2.065,-1.091 -2.631,-1.473 0.766,-0.081 1.499,-0.229 2.18,-0.447 4.189,-1.33 6.055,-4.801 7.558,-7.595 0.191,-0.359 0.382,-0.703 0.565,-1.032 1.529,-2.725 6.214,-4.416 7.477,-4.827 l 0,0.008 c -1.395,1.532 -1.742,2.446 -1.758,2.484 l -0.063,0.177 0.111,0.148 1.784,2.45 z M -66.83,42.056 c 7.15,1.944 21.033,1.532 23.15,1.458 0.044,0.104 0.111,0.193 0.178,0.278 -32.929,4.571 -36.686,-6.584 -36.826,-7.065 l -0.008,-0.008 c 0.067,0.081 0.133,0.162 0.196,0.255 4.535,6.033 12.437,5.201 13.31,5.082 M -78.781,28.04 c -0.015,-0.148 -0.022,-0.263 -0.022,-0.352 0.251,0.237 0.644,0.692 1.021,1.137 2.344,2.727 7.218,8.405 15.915,10.429 11.844,2.757 16.732,2.373 18.091,2.147 0.004,0.044 0.015,0.089 0.015,0.137 -2.37,0.089 -14.816,0.422 -22.332,-1.647 -8.244,-2.266 -12.354,-7.732 -12.688,-11.851 m 48.31,19.62 c 2.912,-1.488 2.923,-2.91 2.92,-3.065 l -0.025,-0.429 -0.438,0.018 c -0.72,0.045 -1.902,0.352 -1.95,0.367 l -0.125,0.029 -0.086,0.1 c -0.5,0.551 -0.851,2.187 -0.918,2.502 l -0.185,0.885 0.807,-0.407 z m -30.657,8.445 c 1.815,-0.61 3.38,-1.454 4.657,-2.509 0.558,-0.059 3.164,-0.404 6.699,-1.588 4.212,-1.418 8.013,-3.438 11.303,-6.01 0.478,-0.012 2.258,-0.108 4.391,-0.826 2.619,-0.88 6.101,-2.835 7.823,-7.176 l 0.015,-0.052 0.007,-0.048 c 0.01,-0.115 0.244,-2.398 0.306,-3.716 0.427,0.366 1.048,1.003 1.649,1.973 l 0.094,0.159 0.186,0.011 c 0.029,0 0.215,0 0.481,-0.085 0.526,-0.178 1.526,-0.781 2.266,-2.82 l 0.011,-0.048 0.008,-0.048 c 0.003,-0.086 0.14,-2.07 0.136,-2.962 0.004,0.004 0.008,0.008 0.011,0.016 l 0.137,0.114 c 2.17,1.836 3.201,3.779 3.08,5.762 l -0.016,0.263 0.251,0.089 c 0.112,0.037 2.7,0.929 2.214,3.269 -0.141,0.677 -0.321,1.276 -0.496,1.847 -0.429,1.431 -0.811,2.686 -0.373,4.577 -0.071,-0.107 -0.148,-0.225 -0.233,-0.37 -0.408,-0.696 -0.471,-1.987 -0.53,-3.031 -0.04,-0.773 -0.077,-1.439 -0.24,-1.851 -0.362,-0.921 -1.503,-2.527 -3.198,-1.961 -0.158,0.055 -0.315,0.126 -0.474,0.211 -0.854,0.477 -1.975,1.843 -3.265,3.439 -1.346,1.635 -2.868,3.512 -4.123,4.311 l -0.347,0.218 c -2.358,1.514 -4.796,3.076 -5.5,5.423 -0.332,1.128 -3.182,3.534 -4.945,4.445 0.138,-0.378 0.352,-0.903 0.686,-1.577 0.654,-1.318 0.824,-2.284 0.528,-2.95 -0.185,-0.407 -0.528,-0.684 -1.021,-0.817 -0.21,-0.06 -0.433,-0.045 -0.659,0.021 -0.844,0.285 -1.643,1.499 -2.487,2.787 -0.477,0.733 -0.969,1.488 -1.443,2.021 -0.966,1.066 -2.987,2.002 -4.294,2.488 1.381,-1.122 3.391,-3.083 3.413,-5.727 l 0,-0.166 -0.141,-0.107 c -0.037,-0.03 -0.918,-0.7 -2.095,-0.311 -0.278,0.093 -0.547,0.244 -0.814,0.44 l -0.11,0.085 c -2.266,1.74 -4.816,3.094 -7.581,4.023 -5.936,1.992 -12.302,1.899 -18.923,-0.285 0.262,0 0.678,0.015 1.299,0.075 5.602,0.503 9.43,-0.282 11.657,-1.026"
         style="fill:#ffffff;fill-opacity:1;fill-rule:nonzero;stroke:none"
         id="path2941"
         inkscape:connector-curvature="0" />
    </g>
    <g
       id="g2943"
       transform="matrix(1.25,0,0,-1.25,373.5785,1025.2942)">
      <path
         d="m 0,0 c 0,0 -1.051,1.889 -1.851,6.203 0,0 -6.062,-1.246 -6.062,6.477 l 0,5.963 c 0,3.905 -0.26,6.691 -0.771,8.357 -0.506,1.658 -1.345,3.109 -2.515,4.327 -1.34,1.365 -3.08,2.386 -5.204,3.06 -2.124,0.667 -4.734,1.004 -7.813,1.004 -1.296,0 -2.632,-0.108 -4.015,-0.337 -1.377,-0.222 -2.888,-0.571 -4.528,-1.04 l -3.578,-8.169 c 1.783,0.718 3.486,1.255 5.092,1.6 1.599,0.351 3.135,0.521 4.6,0.521 1.595,0 2.795,-0.297 3.603,-0.892 0.806,-0.599 1.213,-1.466 1.213,-2.613 0,-1.913 -2.365,-3.342 -7.088,-4.29 -1.691,-0.325 -3.034,-0.61 -4.03,-0.859 -3.527,-0.842 -6.181,-2.175 -7.947,-3.985 -1.764,-1.818 -2.646,-4.119 -2.646,-6.906 0,-3.305 1.192,-6.03 3.561,-8.169 2.376,-2.134 5.415,-3.209 9.119,-3.209 0.474,0 1.066,0.012 1.777,0.041 0.703,0.026 1.621,0.086 2.739,0.189 l 3.212,6.784 -0.599,0 c -1.643,0 -2.94,0.407 -3.878,1.21 -0.949,0.808 -1.418,1.91 -1.418,3.305 0,1.288 0.477,2.387 1.435,3.283 0.955,0.892 2.854,1.887 5.689,2.979 l 0,-2.653 c 0,-0.848 -0.048,-1.984 0,-3.334 l 0,-0.426 c 0,-0.937 0.096,-1.818 0.277,-2.658 0.834,-5.566 3.935,-13.094 15.112,-19.526 0,0 -3.012,6.421 -0.555,9.829 C -4.607,-0.521 0,0 0,0"
         style="fill:#ffffff;fill-opacity:1;fill-rule:nonzero;stroke:none"
         id="path2945"
         inkscape:connector-curvature="0" />
    </g>
    <g
       id="g2947"
       transform="matrix(1.25,0,0,-1.25,163.54187,1004.7424)">
      <path
         d="m 0,0 0,16.628 c 0,4.127 -5.493,15.445 -14.905,16.067 0.845,-0.796 1.448,-1.673 1.81,-2.613 0.366,-0.948 0.549,-2.154 0.549,-3.609 l 0,-9.675 c -1.481,0.823 -2.814,1.415 -4.002,1.781 -1.18,0.363 -2.365,0.544 -3.553,0.544 -4.467,0 -8.22,-1.692 -11.27,-5.078 -3.041,-3.378 -4.56,-7.653 -4.56,-12.805 0,-5.193 1.97,-8.931 4.45,-12.422 6.402,-9.037 18.283,-7.52 18.504,-7.497 l -1.384,9.359 -0.544,0 c -2.738,0 -4.822,0.947 -6.258,2.839 -1.432,1.892 -2.154,4.637 -2.154,8.238 0,3.009 0.519,5.352 1.54,7.044 1.028,1.683 2.45,2.527 4.275,2.527 1.78,0 3.023,-0.64 3.741,-1.932 0.718,-1.288 1.081,-3.763 1.081,-7.431 l 0,-6.729 c 0,-9.552 3.361,-12.602 3.361,-12.602 6.924,-6.925 20.112,0.555 20.112,0.555 C -1.995,-16.811 0,-1.125 0,0"
         style="fill:#ffffff;fill-opacity:1;fill-rule:nonzero;stroke:none"
         id="path2949"
         inkscape:connector-curvature="0" />
    </g>
    <g
       id="g2951"
       transform="matrix(1.25,0,0,-1.25,387.63725,1003.9239)">
      <path
         d="m 0,0 c -0.78,1.302 -1.172,3.224 -1.172,5.759 0,1.643 0.392,2.92 1.172,3.826 0.781,0.907 1.892,1.367 3.34,1.367 1.49,0 2.612,-0.644 3.371,-1.929 C 7.474,7.747 7.85,5.862 7.85,3.375 7.85,1.662 7.474,0.34 6.711,-0.581 5.952,-1.5 4.854,-1.962 3.413,-1.962 1.921,-1.962 0.781,-1.306 0,0 m 21.241,-14.623 c -2.739,2.072 -6.299,3.112 -10.707,3.112 -1.218,0 -2.639,-0.1 -4.267,-0.292 -1.632,-0.204 -2.658,-0.303 -3.08,-0.303 -0.696,0 -1.25,0.114 -1.658,0.355 -0.414,0.232 -0.614,0.541 -0.614,0.914 0,1.095 1.403,1.725 4.211,1.903 2.288,0.143 4.139,0.385 5.56,0.706 3.234,0.744 5.729,2.15 7.498,4.197 1.766,2.051 2.647,4.575 2.647,7.554 0,1.439 -0.23,2.71 -0.685,3.809 -0.463,1.095 -1.229,2.172 -2.294,3.241 l 4.137,0 5.989,9.25 c -8.077,-3.386 -24.743,-2.01 -25.457,-2.01 -4.678,0 -8.579,-1.329 -11.703,-3.994 -3.12,-2.664 -4.678,-5.932 -4.678,-9.811 0,-2.634 0.77,-4.956 2.31,-6.959 1.546,-1.997 3.86,-3.712 6.939,-5.129 l -4.881,-2.35 c 0.614,-2.638 1.465,-4.508 2.535,-5.611 1.069,-1.107 2.561,-1.661 4.474,-1.661 0.548,0 1.429,0.047 2.65,0.147 1.222,0.104 2.177,0.153 2.872,0.153 2.314,0 4.115,-0.467 5.412,-1.396 1.287,-0.94 1.939,-2.224 1.939,-3.864 0,-2.113 -0.707,-3.716 -2.11,-4.793 -1.406,-1.085 -3.465,-1.621 -6.174,-1.621 -2.064,0 -3.749,0.415 -5.055,1.247 -1.302,0.837 -1.958,1.895 -1.958,3.19 0,0.775 0.256,1.47 0.765,2.091 0.511,0.619 1.274,1.141 2.295,1.562 -1.465,0.423 -2.597,0.711 -3.374,0.859 -0.785,0.152 -1.503,0.223 -2.146,0.223 -2.289,0 -4.221,-0.644 -5.805,-1.936 -1.577,-1.296 -2.364,-2.813 -2.364,-4.553 0,-3.005 1.661,-5.33 4.996,-6.954 3.331,-1.635 8.079,-2.446 14.249,-2.446 6.687,0 11.965,1.183 15.837,3.542 3.863,2.361 5.803,5.562 5.803,9.589 0,3.283 -1.369,5.963 -4.108,8.039"
         style="fill:#ffffff;fill-opacity:1;fill-rule:nonzero;stroke:none"
         id="path2953"
         inkscape:connector-curvature="0" />
    </g>
    <g
       id="g2955"
       transform="matrix(1.25,0,0,-1.25,448.26113,1016.3507)">
      <path
         d="m 0,0 c -1.132,-1.817 -2.816,-2.724 -5.056,-2.724 -2.164,0 -3.848,1.095 -5.055,3.283 -1.202,2.184 -1.806,5.274 -1.806,9.249 0,3.483 0.574,6.125 1.732,7.932 1.159,1.802 2.838,2.698 5.056,2.698 2.188,0 3.874,-1.074 5.056,-3.224 C 1.104,15.063 1.699,12.01 1.699,8.054 1.699,4.497 1.134,1.813 0,0 m 10.168,22.64 c -3.931,3.682 -8.846,5.525 -14.738,5.525 -6.169,0 -11.319,-1.902 -15.441,-5.692 -4.131,-3.79 -6.196,-8.497 -6.196,-14.116 0,-5.296 1.961,-9.778 5.877,-13.45 3.916,-3.668 8.839,-5.5 14.754,-5.5 6.164,0 11.316,1.877 15.44,5.633 4.131,3.753 6.196,8.454 6.196,14.098 0,5.322 -1.97,9.822 -5.892,13.502"
         style="fill:#ffffff;fill-opacity:1;fill-rule:nonzero;stroke:none"
         id="path2957"
         inkscape:connector-curvature="0" />
    </g>
    <g
       id="g2959"
       transform="matrix(1.25,0,0,-1.25,50.995496,1025.6689)">
      <path
         d="m 0,0 c -11.128,0 -20.152,11 -20.152,24.561 0,13.572 9.024,24.568 20.152,24.568 11.129,0 20.146,-10.996 20.146,-24.568 C 20.146,11 11.129,0 0,0 m 0,57.427 c -19.574,0 -35.444,-14.712 -35.444,-32.866 0,-18.146 15.87,-32.858 35.444,-32.858 19.576,0 35.442,14.712 35.442,32.858 0,18.154 -15.866,32.866 -35.442,32.866"
         style="fill:#ffffff;fill-opacity:1;fill-rule:nonzero;stroke:none"
         id="path2961"
         inkscape:connector-curvature="0" />
    </g>
    <path
       d="m 114.83087,1018.6633 0,-55.42749 c -5.815,-5.815 -19.10125,-2.90625 -22.28,-2.67875 5.54125,3.54375 6.6375,15.05875 6.6375,18.02375 l 0,40.08249 c 0,6.2363 -2.7425,8.555 -3.84375,9.54 8.345,-0.675 14.8275,0.083 23.34875,0.083 -4.00125,0 -3.8625,-5.9062 -3.8625,-9.6225"
       style="fill:#ffffff;fill-opacity:1;fill-rule:nonzero;stroke:none"
       id="path2965"
       inkscape:connector-curvature="0" />
  </g>
</svg>
