<?xml version="1.0" encoding="UTF-8" standalone="no"?>
<!-- Created with Inkscape (http://www.inkscape.org/) -->

<svg
   xmlns:dc="http://purl.org/dc/elements/1.1/"
   xmlns:cc="http://creativecommons.org/ns#"
   xmlns:rdf="http://www.w3.org/1999/02/22-rdf-syntax-ns#"
   xmlns:svg="http://www.w3.org/2000/svg"
   xmlns="http://www.w3.org/2000/svg"
   xmlns:sodipodi="http://sodipodi.sourceforge.net/DTD/sodipodi-0.dtd"
   xmlns:inkscape="http://www.inkscape.org/namespaces/inkscape"
   width="528.72302"
   height="160.47099"
   viewBox="0 0 528.72303 160.471"
   id="svg4042"
   version="1.1"
   inkscape:version="0.91 r13725"
   sodipodi:docname="drawing.svg">
  <defs
     id="defs4044" />
  <sodipodi:namedview
     id="base"
     pagecolor="#ffffff"
     bordercolor="#666666"
     borderopacity="1.0"
     inkscape:pageopacity="0.0"
     inkscape:pageshadow="2"
     inkscape:zoom="0.35"
     inkscape:cx="375"
     inkscape:cy="520"
     inkscape:document-units="px"
     inkscape:current-layer="layer1"
     showgrid="false"
     units="px"
     inkscape:window-width="1366"
     inkscape:window-height="683"
     inkscape:window-x="-8"
     inkscape:window-y="-8"
     inkscape:window-maximized="1" />
  <metadata
     id="metadata4047">
    <rdf:RDF>
      <cc:Work
         rdf:about="">
        <dc:format>image/svg+xml</dc:format>
        <dc:type
           rdf:resource="http://purl.org/dc/dcmitype/StillImage" />
        <dc:title></dc:title>
      </cc:Work>
    </rdf:RDF>
  </metadata>
  <g
     inkscape:label="Camada 1"
     inkscape:groupmode="layer"
     id="layer1"
     transform="translate(0,-891.89116)">
    <g
       id="g3552"
       transform="matrix(1.25,0,0,-1.25,-350.77288,2025.7225)"
       inkscape:export-xdpi="90"
       inkscape:export-ydpi="90">
      <path
         id="path3037"
         style="fill:#faf2f3;fill-opacity:1;fill-rule:nonzero;stroke:none"
         d="m 699.62,846.51346 c 0,-3.769 -3.055,-6.823 -6.823,-6.823 -3.768,0 -6.823,3.054 -6.823,6.823 0,3.768 3.055,6.822 6.823,6.822 3.768,0 6.823,-3.054 6.823,-6.822"
         inkscape:connector-curvature="0" />
      <path
         id="path3041"
         style="fill:#faf2f3;fill-opacity:1;fill-rule:nonzero;stroke:none"
         d="m 477.7733,778.68826 c -26.721,0 -38.92,17.158 -42.054,22.467 l -72.939,0 c -2.565,-1.284 -12.438,-5.787 -24.7,-5.79 -10.749,0 -20.32,3.429 -28.449,10.192 -9.554,7.945 -14.202,18.563 -13.442,30.701 0.365,5.84 1.879,10.821 3.16,14.105 -4.144,-0.307 -10.547,-1.214 -15.314,-3.866 l -3.417,3.988 c 8.596,11.045 42.005,47.086 110.935,47.086 12.284,0 25.22,-1.169 38.466,-3.472 2.62,1.964 9.892,6.697 19.108,6.697 2.301,0 4.574,-0.299 6.788,-0.891 -0.372,0.775 -0.867,1.73 -1.522,2.906 l -2.369,4.254 4.863,-0.275 c 0.667,-0.038 16.489,-1.094 26.68,-15.228 1.457,-2.023 2.796,-2.863 3.189,-2.863 -0.013,10e-4 0.766,0.407 1.548,3.17 l 1.043,3.691 3.107,-2.251 c 0.462,-0.334 11.316,-8.368 11.316,-23.498 0,-10.885 7.566,-15.955 23.813,-15.955 l 0.159,0 0.149,0 141.528,0 c 0.25,0.02 0.776,0.053 1.501,0.053 9.955,0 20.801,-5.442 21.388,-20.714 0.055,-1.414 0.1,-2.75 0.144,-4.015 0.45,-13.077 0.601,-17.484 6.568,-23.45 l 4.576,-4.575 -6.47,0 -77.31,0 c -1.586,-4.843 -7.432,-15.313 -28.309,-15.313 -23.055,0 -32.275,10.852 -35.746,14.937 -0.054,0.066 -0.109,0.129 -0.161,0.193 l -39.034,0 c -1.167,-2.207 -3.67,-6.305 -7.925,-10.395 -5.642,-5.424 -15.578,-11.889 -30.868,-11.889"
         inkscape:connector-curvature="0" />
      <path
         id="path3045"
         style="fill:#462d1a;fill-opacity:1;fill-rule:nonzero;stroke:none"
         d="m 697.12589,803.83616 -79.407,0 c 0,0 -1.722,-15.314 -26.211,-15.314 -24.488,0 -32.266,12.688 -34.708,15.128 l -41.908,0 c 0,0 -9.245,-22.281 -37.119,-22.281 -29.614,0 -40.468,22.467 -40.468,22.467 l -75.175,0 c 0,0 -27.889,-15.265 -50.784,3.781 -21.445,17.838 -9.25,42.896 -7.776,45.577 0,0 -12.529,0.267 -20.837,-4.356 7.457,9.581 50.585,59.833 148.005,42.413 0,0 12.678,11.042 27.311,5.119 0,0 4.583,-2.841 -1.315,7.745 0,0 15.097,-0.858 24.66,-14.121 1.603,-2.225 6.822,-8.286 9.489,1.145 0,0 10.208,-7.393 10.208,-21.329 0,-18.788 20.724,-18.633 26.8,-18.633 l 141.64,0 c 0,0 19.328,1.962 20.1,-18.083 0.623,-16.223 0.141,-21.905 7.495,-29.258"
         inkscape:connector-curvature="0" />
      <path
         id="path3049"
         style="fill:#faf2f3;fill-opacity:1;fill-rule:nonzero;stroke:none"
         d="m 670.1512,812.90206 c -0.369,-0.969 -0.992,-1.848 -1.871,-2.633 l 16.692,0 c -1.476,1.151 -1.758,4.827 -1.758,6.306 l 0,15.626 c 0,3.833 -1.109,6.884 -3.327,9.147 -2.217,2.263 -5.209,3.396 -8.972,3.396 -1.503,0 -2.952,-0.278 -4.35,-0.831 -1.397,-0.555 -2.859,-1.433 -4.383,-2.634 l -0.277,3.465 c -1.641,-0.254 -3.361,-0.444 -5.162,-0.572 -1.803,-0.127 -3.87,-0.19 -6.202,-0.19 l -3.257,0 c 0.854,-0.787 1.471,-1.675 1.852,-2.667 0.381,-0.996 0.573,-2.242 0.573,-3.743 l 0,-20.997 c 0,-1.479 -0.185,-2.703 -0.555,-3.673 -0.369,-0.969 -0.992,-1.848 -1.87,-2.633 l 17.323,0 c -0.854,0.785 -1.473,1.664 -1.852,2.633 -0.382,0.97 -0.573,2.194 -0.573,3.673 l 0,10.879 c 0,4.227 0.295,6.958 0.884,8.195 0.589,1.235 1.646,1.853 3.17,1.853 1.617,0 2.766,-0.739 3.447,-2.217 0.682,-1.478 1.022,-4.089 1.022,-7.831 l 0,-10.879 c 0,-1.479 -0.184,-2.703 -0.554,-3.673"
         inkscape:connector-curvature="0" />
      <path
         id="path3053"
         style="fill:#d8b784;fill-opacity:1;fill-rule:nonzero;stroke:none"
         d="m 396.69709,877.09306 c 0,0 -1.672,0.247 -13.716,0.247 0,0 -3.519,-1.389 -10.705,-1.389 -11.038,0 -12.148,1.061 -33.244,-5.629 0,0 25.216,5.098 62.683,0.415 0,0 -28.77,1.004 -40.813,-5.019 0,0 28.554,3.501 38.771,-8.031 0,0 6.259,10.543 19.755,2.912 0.117,-0.077 0.236,-0.152 0.351,-0.232 0,0 -5.6,7.471 1.44,6.517 2.11,-0.284 3.937,-3.553 10.222,-3.553 0,0 -25.043,12.424 -13,20.452 0,0 -75.919,14.005 -118.422,-25.089 0,0 35.125,30.917 96.678,18.399"
         inkscape:connector-curvature="0" />
      <path
         id="path3057"
         style="fill:#faf2f3;fill-opacity:1;fill-rule:nonzero;stroke:none"
         d="m 337.93839,840.94606 c -14.972,-7.61 0,-14.005 0,-14.005 14.973,7.609 0,14.005 0,14.005"
         inkscape:connector-curvature="0" />
      <path
         id="path3061"
         style="fill:#faf2f3;fill-opacity:1;fill-rule:nonzero;stroke:none"
         d="m 530.2772,822.74046 0,5.893 c 0,2.678 0.65,4.23 1.749,5.327 1.785,1.786 4.289,3.688 8.487,2.278 l 3.037,7.627 c 0,0 -4.28,1.956 -8.716,0.37 -0.047,-0.014 -0.094,-0.033 -0.141,-0.048 -0.012,0 -0.024,-0.01 -0.037,-0.013 -0.506,-0.171 -0.98,-0.384 -1.416,-0.643 -1.282,-0.762 -2.27,-1.895 -2.963,-3.396 l -0.277,4.609 c -1.641,-0.254 -3.362,-0.444 -5.163,-0.572 -1.802,-0.127 -3.87,-0.19 -6.203,-0.19 l -3.186,0 c 0.831,-0.763 1.432,-1.636 1.802,-2.617 0.368,-0.982 0.552,-2.246 0.552,-3.793 l 0,-20.997 c 0,-1.48 -0.184,-2.703 -0.552,-3.673 -0.37,-0.97 -0.994,-1.849 -1.872,-2.633 l 21.644,0 c -5.527,2.895 -6.745,8.441 -6.745,12.471"
         inkscape:connector-curvature="0" />
      <path
         id="path3065"
         style="fill:#d8b784;fill-opacity:1;fill-rule:nonzero;stroke:none"
         d="m 464.1552,844.53056 c 0,0 1.431,-4.907 1.431,-11.26 0,-6.351 -5.933,-30.092 12.564,-26.734 0,0 -7.684,0.402 -6.597,9.024 3.853,30.521 -7.398,28.97 -7.398,28.97"
         inkscape:connector-curvature="0" />
      <path
         id="path3069"
         style="fill:#d8b784;fill-opacity:1;fill-rule:nonzero;stroke:none"
         d="m 507.70789,837.80106 0.499,0.406 c 1.467,-1.712 3.983,-4.793 6.118,-8.141 -1.912,5.383 -8.009,18.097 -24.066,23.189 -4.521,1.433 -9.557,2.175 -14.968,2.202 -5.35,0.029 -10.015,0.662 -13.87,1.885 -4.712,1.493 -8.007,3.83 -9.279,6.582 -0.681,1.473 -0.734,2.982 -0.155,4.364 2.011,4.791 13.376,5.906 15.619,6.08 l -0.052,0.275 c -1.919,-0.067 -13.625,-0.677 -22.201,-5.469 -0.322,-0.179 -0.626,-0.365 -0.927,-0.552 l 0,0 c 0,0 -0.003,0 -0.004,-0.01 -2.412,-1.501 -4.129,-3.24 -5.168,-5.227 -3.9,-2.96 -9.64,-5.389 -15.97,-1.627 0,0 6.415,-12.026 20.112,-10.388 l 8e-4,0.01 c 0.678,-1.342 1.624,-2.751 2.928,-4.21 -0.355,0.983 -0.78,2.298 -1.003,3.518 l 0.576,0.246 c 0.044,-0.059 5.362,-7.074 9.646,-8.698 -1.29,1.046 -2.384,3.827 -3.255,5.818 l -0.46,1.05 0.939,-0.658 c 3.126,-4.413 8.04,-6.468 8.614,-6.533 -0.751,2.483 -0.743,5.2 -0.743,5.2 l 0.657,-0.037 c 0.062,0 6.341,-0.39 12.183,-2.243 5.173,-1.64 8.942,-4.497 9.612,-6.413 0.522,2.116 -0.487,5.058 -2.726,6.034 l -0.036,0.295 c 10.201,-1.144 27.354,-21.75 11.238,-36.128 -15.411,-13.747 -39.963,-1.628 -46.511,22.909 -3.92,14.689 -14.051,17.077 -21.105,20.04 10.449,-6.555 16.304,-14.655 17.693,-25.044 0.525,-3.936 1.344,-7.422 2.397,-10.525 -3.236,4.549 -6.087,10.639 -6.087,10.639 2.88,-12.307 10.87,-21.79 10.87,-21.79 2.497,-3.07 3.778,-3.805 4.223,-3.284 15.677,-14.38 41.555,-6.013 46.033,-2.377 -0.328,-0.524 -0.645,-1.039 -0.944,-1.532 -1.495,-2.456 -3.244,-4.338 -4.412,-5.457 2.311,0.986 4.334,2.374 6.097,3.961 -0.298,-1.465 -0.618,-2.484 -0.618,-2.484 1.474,1.926 2.685,3.843 3.688,5.722 4.793,5.882 6.814,12.58 6.845,12.688 0.499,1.615 0.462,2.106 0.427,2.239 -0.135,-0.027 -0.331,-0.163 -0.573,-0.383 3.176,8.667 2.648,17.959 -1.882,23.854 m -51.0288,30.671 c 1.708,-0.541 3.857,-1.96 5.089,-5.578 0.361,2.667 1.731,7.333 6.784,9.622 l -0.027,0.053 c -1.331,-0.114 -8.657,-0.867 -13.15,-3.823 0.368,-0.039 0.814,-0.118 1.304,-0.274 m 36.072,-7.908 c 0.659,-0.209 1.399,-0.338 2.114,-0.414 -4.5,1.688 -9.018,5.917 -12.056,8.76 -1.205,1.13 -2.159,2.021 -2.635,2.29 -0.325,0.183 -0.651,0.325 -0.991,0.433 -0.579,0.184 -1.14,0.248 -1.731,0.315 l -0.105,0.012 c -0.696,0.079 -1.386,0.17 -2.186,0.424 -0.288,0.091 -0.581,0.201 -0.868,0.325 -2.917,1.265 -4.261,2.931 -3.69,4.573 0.628,1.798 4.435,1.233 4.867,1.163 l 0.108,-0.018 0.076,-0.081 c 0.68,-0.732 1.084,-1.903 1.263,-2.533 0.369,0.176 0.99,0.369 1.909,0.334 0.132,-0.01 0.256,-0.026 0.372,-0.062 0.977,-0.31 1.062,-1.592 1.018,-2.367 0.456,0.31 0.67,0.748 0.752,0.966 -1.647,2.307 -3.704,3.341 -5.154,3.8 -2.071,0.656 -4.26,0.557 -5.579,-0.255 -0.576,-0.355 -0.924,-0.819 -1.007,-1.341 -0.383,-2.377 0.868,-4.056 4.322,-5.797 0.662,-0.333 1.368,-0.616 2.161,-0.867 0.986,-0.314 1.955,-0.526 2.784,-0.699 l 0.312,-0.066 c 0.756,-0.156 1.409,-0.292 1.959,-0.467 0.614,-0.194 1.024,-0.419 1.291,-0.705 1.018,-1.099 3.209,-2.691 6.837,-5.331 l 0.063,-0.046 c 1.909,-1.387 3.057,-3.166 3.727,-4.6 -0.234,1.134 -0.559,1.886 -0.565,1.898 l -0.3,0.684 0.702,-0.25 c 0.076,-0.027 0.152,-0.053 0.23,-0.078 m -31.53508,23.685 c -4.726,1.73 -11.952,2.961 -19.922,-0.732 0.819,0.066 1.827,0.143 2.674,0.075 1.526,-0.124 3.897,-0.53 5.283,-1.038 0.607,-0.222 1.005,-0.451 1.218,-0.701 0.169,-0.199 0.371,-0.343 0.598,-0.427 0.376,-0.137 0.702,-0.064 0.705,-0.063 l 0.039,0.01 0.037,0 c 5.156,-0.01 10.009,-0.348 13.317,-0.942 2.255,-0.404 3.407,-0.504 3.988,-0.51 -1.135,0.876 -3.987,2.885 -7.937,4.33 m 22.608,-22.047 c -1.457,-0.297 -3.584,-0.627 -3.693,-0.643 l -0.623,-0.095 0.286,0.559 1.156,2.256 -2.749,-0.104 -0.463,-0.02 0.145,0.44 0.612,1.853 -1.433,-0.177 -0.163,-0.021 -0.112,0.12 c -1.791,1.929 -6.239,4.694 -7.105,5.224 -1.095,-0.521 -1.914,-1.018 -2.443,-1.367 0.712,-0.079 1.391,-0.22 2.026,-0.422 3.888,-1.233 5.624,-4.457 7.017,-7.049 0.182,-0.335 0.356,-0.659 0.529,-0.964 1.419,-2.529 5.772,-4.097 6.944,-4.479 l 0,0.01 c -1.297,1.419 -1.617,2.273 -1.631,2.308 l -0.059,0.162 0.101,0.137 1.658,2.276 z m -38.193,14.664 c 6.642,1.801 19.535,1.426 21.5,1.354 0.044,0.096 0.103,0.181 0.17,0.258 -30.587,4.247 -34.075,-6.116 -34.208,-6.563 l -0.005,-0.01 c 0.06,0.075 0.122,0.154 0.178,0.235 4.213,5.608 11.555,4.829 12.365,4.724 m -11.102,-13.02 c -0.011,-0.138 -0.015,-0.244 -0.015,-0.323 0.23,0.217 0.592,0.64 0.946,1.051 2.174,2.534 6.702,7.805 14.781,9.69 10.997,2.563 15.542,2.201 16.805,1.993 0.003,0.041 0.007,0.083 0.012,0.126 -2.201,0.079 -13.761,0.388 -20.741,-1.528 -7.658,-2.101 -11.478,-7.18 -11.788,-11.009 m 44.874,18.225 c 2.707,-1.383 2.716,-2.701 2.709,-2.847 l -0.022,-0.402 -0.405,0.02 c -0.672,0.038 -1.765,0.328 -1.811,0.34 l -0.115,0.03 -0.081,0.09 c -0.463,0.514 -0.792,2.031 -0.854,2.326 l -0.17,0.825 0.749,-0.382 z m -28.47324,7.841 c 1.681,-0.564 3.135,-1.348 4.323,-2.327 0.517,-0.058 2.936,-0.374 6.222,-1.477 3.912,-1.313 7.443,-3.191 10.498,-5.585 0.443,-0.01 2.099,-0.097 4.082,-0.762 2.43,-0.817 5.665,-2.636 7.263,-6.673 l 0.017,-0.041 0.003,-0.045 c 0.011,-0.108 0.229,-2.229 0.285,-3.45 0.396,0.337 0.978,0.926 1.532,1.832 l 0.088,0.145 0.169,0.01 c 0.032,10e-4 0.201,0 0.447,-0.077 0.492,-0.165 1.415,-0.724 2.105,-2.619 l 0.015,-0.043 0.003,-0.046 c 0.006,-0.085 0.129,-1.925 0.126,-2.752 0.003,0.01 0.01,0.01 0.014,0.012 l 0.127,0.108 c 2.013,1.705 2.974,3.508 2.858,5.354 l -0.014,0.247 0.234,0.079 c 0.103,0.035 2.506,0.862 2.057,3.033 -0.132,0.636 -0.299,1.188 -0.46,1.722 -0.402,1.327 -0.755,2.496 -0.348,4.246 -0.064,-0.093 -0.137,-0.206 -0.215,-0.342 -0.376,-0.647 -0.439,-1.847 -0.492,-2.812 -0.039,-0.721 -0.073,-1.344 -0.221,-1.72 -0.341,-0.86 -1.399,-2.349 -2.976,-1.821 -0.145,0.048 -0.289,0.113 -0.434,0.194 -0.797,0.44 -1.838,1.716 -3.04,3.188 -1.247,1.529 -2.661,3.262 -3.826,4.01 l -0.319,0.204 c -2.193,1.404 -4.461,2.856 -5.11,5.037 -0.311,1.046 -2.959,3.28 -4.592,4.127 0.124,-0.349 0.325,-0.841 0.634,-1.465 0.608,-1.224 0.769,-2.12 0.492,-2.741 -0.168,-0.377 -0.491,-0.632 -0.953,-0.759 -0.196,-0.053 -0.401,-0.046 -0.61,0.024 -0.783,0.263 -1.524,1.394 -2.309,2.59 -0.444,0.676 -0.901,1.377 -1.342,1.868 -0.896,0.996 -2.774,1.864 -3.988,2.316 1.283,-1.043 3.15,-2.864 3.169,-5.318 l 0,-0.159 -0.126,-0.099 c -0.034,-0.026 -0.859,-0.65 -1.949,-0.284 -0.258,0.087 -0.514,0.224 -0.755,0.407 l -0.1014,0.079 c -2.109,1.617 -4.478,2.875 -7.045,3.736 -5.514,1.851 -11.427,1.762 -17.573,-0.263 0.245,0 0.625,0.011 1.206,0.063 5.199,0.474 8.757,-0.254 10.829,-0.95"
         inkscape:connector-curvature="0" />
      <path
         id="path3073"
         style="fill:#faf2f3;fill-opacity:1;fill-rule:nonzero;stroke:none"
         d="m 577.6151,812.32446 c 0,0 -0.975,1.747 -1.721,5.757 0,0 -5.632,-1.158 -5.632,6.02 l 0,5.536 c 0,3.626 -0.237,6.213 -0.71,7.762 -0.473,1.546 -1.252,2.886 -2.338,4.018 -1.247,1.27 -2.859,2.217 -4.833,2.841 -1.976,0.625 -4.395,0.937 -7.259,0.937 -1.202,0 -2.443,-0.105 -3.725,-0.312 -1.282,-0.209 -2.685,-0.533 -4.21,-0.971 l -3.327,-7.588 c 1.664,0.67 3.24,1.166 4.73,1.49 1.49,0.323 2.917,0.485 4.279,0.485 1.477,0 2.594,-0.278 3.344,-0.831 0.75,-0.555 1.126,-1.363 1.126,-2.426 0,-1.779 -2.195,-3.107 -6.582,-3.984 -1.573,-0.301 -2.82,-0.567 -3.744,-0.797 -3.28,-0.787 -5.74,-2.021 -7.379,-3.707 -1.641,-1.687 -2.46,-3.824 -2.46,-6.411 0,-3.072 1.103,-5.601 3.307,-7.587 2.206,-1.987 5.031,-2.981 8.473,-2.981 0.439,0 0.987,0.012 1.645,0.036 0.659,0.022 1.508,0.079 2.547,0.172 l 2.98,6.306 -0.554,0 c -1.525,0 -2.726,0.376 -3.603,1.127 -0.879,0.749 -1.317,1.773 -1.317,3.066 0,1.201 0.445,2.218 1.334,3.048 0.89,0.832 2.65,1.756 5.284,2.772 l 0,-2.467 c 0,-0.787 -0.043,-1.844 0,-3.097 l 0,-0.395 c 0,-0.87 0.092,-1.689 0.256,-2.467 0.776,-5.175 3.657,-12.165 14.039,-18.144 0,0 -2.798,5.964 -0.514,9.134 2.283,3.169 6.564,3.658 6.564,3.658"
         inkscape:connector-curvature="0" />
      <path
         id="path3077"
         style="fill:#faf2f3;fill-opacity:1;fill-rule:nonzero;stroke:none"
         d="m 421.54189,827.59206 0,15.447 c 0,3.832 -5.104,14.343 -13.844,14.922 0.783,-0.741 1.344,-1.551 1.683,-2.43 0.338,-0.877 0.508,-1.995 0.508,-3.349 l 0,-8.987 c -1.376,0.763 -2.616,1.313 -3.716,1.652 -1.1,0.339 -2.201,0.508 -3.301,0.508 -4.15,0 -7.637,-1.573 -10.464,-4.716 -2.825,-3.143 -4.24,-7.108 -4.24,-11.892 0,-4.826 1.83,-8.3 4.129,-11.542 5.951,-8.394 16.984,-6.984 17.194,-6.963 l -1.285,8.693 -0.508,0 c -2.54,0 -4.478,0.879 -5.811,2.636 -1.333,1.757 -2.001,4.308 -2.001,7.653 0,2.794 0.477,4.975 1.429,6.541 0.953,1.566 2.276,2.349 3.97,2.349 1.651,0 2.809,-0.598 3.476,-1.793 0.668,-1.196 1.001,-3.5 1.001,-6.907 l 0,-6.246 c 0,-8.873 3.123,-11.705 3.123,-11.705 6.431,-6.433 18.681,0.517 18.681,0.517 -11.876,0 -10.019,14.57 -10.024,15.612"
         inkscape:connector-curvature="0" />
      <path
         id="path3081"
         style="fill:#faf2f3;fill-opacity:1;fill-rule:nonzero;stroke:none"
         d="m 588.0604,828.19996 c -0.728,1.212 -1.09,2.996 -1.09,5.353 0,1.524 0.362,2.708 1.09,3.552 0.729,0.842 1.762,1.264 3.101,1.264 1.386,0 2.43,-0.595 3.136,-1.785 0.704,-1.189 1.058,-2.939 1.058,-5.25 0,-1.592 -0.354,-2.817 -1.058,-3.672 -0.706,-0.854 -1.726,-1.281 -3.067,-1.281 -1.384,0 -2.441,0.606 -3.17,1.819 m 19.732,-13.583 c -2.54,1.929 -5.855,2.894 -9.943,2.894 -1.133,0 -2.455,-0.092 -3.968,-0.277 -1.513,-0.186 -2.466,-0.279 -2.858,-0.279 -0.648,0 -1.16,0.11 -1.542,0.33 -0.381,0.219 -0.571,0.502 -0.571,0.849 0,1.016 1.304,1.605 3.914,1.768 2.126,0.137 3.845,0.357 5.163,0.657 3.003,0.692 5.325,1.993 6.964,3.899 1.64,1.905 2.46,4.244 2.46,7.016 0,1.338 -0.213,2.518 -0.64,3.533 -0.428,1.017 -1.139,2.022 -2.131,3.015 l 3.846,0 5.562,8.59 c -7.501,-3.145 -22.979,-1.868 -23.648,-1.868 -4.343,0 -7.965,-1.235 -10.864,-3.708 -2.898,-2.471 -4.347,-5.508 -4.347,-9.111 0,-2.45 0.715,-4.604 2.147,-6.463 1.432,-1.859 3.58,-3.448 6.445,-4.763 l -4.539,-2.184 c 0.577,-2.449 1.363,-4.187 2.356,-5.213 0.994,-1.029 2.379,-1.543 4.158,-1.543 0.507,0 1.328,0.045 2.46,0.138 1.132,0.092 2.022,0.139 2.668,0.139 2.149,0 3.822,-0.433 5.025,-1.3 1.2,-0.866 1.801,-2.061 1.801,-3.586 0,-1.962 -0.653,-3.448 -1.958,-4.451 -1.304,-1.006 -3.216,-1.508 -5.734,-1.508 -1.917,0 -3.481,0.387 -4.694,1.161 -1.214,0.775 -1.82,1.761 -1.82,2.962 0,0.716 0.237,1.364 0.71,1.94 0.473,0.577 1.184,1.063 2.131,1.456 -1.362,0.392 -2.407,0.658 -3.135,0.796 -0.728,0.139 -1.392,0.208 -1.993,0.208 -2.124,0 -3.921,-0.599 -5.387,-1.802 -1.467,-1.201 -2.2,-2.609 -2.2,-4.226 0,-2.794 1.547,-4.949 4.642,-6.463 3.096,-1.513 7.508,-2.269 13.235,-2.269 6.215,0 11.116,1.098 14.709,3.291 3.591,2.195 5.388,5.164 5.388,8.905 0,3.049 -1.27,5.538 -3.812,7.467"
         inkscape:connector-curvature="0" />
      <path
         id="path3085"
         style="fill:#faf2f3;fill-opacity:1;fill-rule:nonzero;stroke:none"
         d="m 633.1093,818.96606 c -1.051,-1.687 -2.614,-2.531 -4.694,-2.531 -2.01,0 -3.575,1.018 -4.696,3.051 -1.12,2.033 -1.679,4.896 -1.679,8.592 0,3.234 0.537,5.688 1.611,7.363 1.073,1.674 2.639,2.511 4.694,2.511 2.032,0 3.598,-0.999 4.696,-2.996 1.096,-1.998 1.646,-4.833 1.646,-8.507 0,-3.304 -0.525,-5.797 -1.578,-7.483 m 9.442,21.031 c -3.649,3.418 -8.211,5.129 -13.685,5.129 -5.73,0 -10.511,-1.763 -14.345,-5.285 -3.835,-3.522 -5.752,-7.893 -5.752,-13.114 0,-4.92 1.819,-9.083 5.457,-12.491 3.639,-3.408 8.206,-5.111 13.705,-5.111 5.728,0 10.509,1.745 14.343,5.234 3.835,3.485 5.752,7.852 5.752,13.095 0,4.943 -1.825,9.125 -5.475,12.543"
         inkscape:connector-curvature="0" />
      <path
         id="path3089"
         style="fill:#faf2f3;fill-opacity:1;fill-rule:nonzero;stroke:none"
         d="m 337.91099,812.04276 c -10.337,0 -18.717,10.216 -18.717,22.816 0,12.601 8.38,22.817 18.717,22.817 10.335,0 18.716,-10.216 18.716,-22.817 0,-12.6 -8.381,-22.816 -18.716,-22.816 m 0,53.343 c -18.183,0 -32.923,-13.668 -32.923,-30.527 0,-16.858 14.74,-30.525 32.923,-30.525 18.181,0 32.922,13.667 32.922,30.525 0,16.859 -14.741,30.527 -32.922,30.527"
         inkscape:connector-curvature="0" />
      <path
         id="path3093"
         style="fill:#faf2f3;fill-opacity:1;fill-rule:nonzero;stroke:none"
         d="m 385.348,817.24976 0,41.186 c -4.322,4.321 -14.19401,2.161 -16.55601,1.992 4.115,-2.634 4.93,-11.192 4.93,-13.399 l 0,-29.779 c 0,-4.635 -2.037,-6.356 -2.855,-7.089 6.199,0.496 11.01801,-0.063 17.35401,-0.063 -2.979,0 -2.873,4.388 -2.873,7.152"
         inkscape:connector-curvature="0" />
      <path
         id="path3097"
         style="fill:#462d1a;fill-opacity:1;fill-rule:nonzero;stroke:none"
         d="m 692.7968,843.20776 c -1.825,0 -3.301,1.479 -3.305,3.306 0.004,1.825 1.48,3.301 3.305,3.304 1.827,0 3.302,-1.479 3.307,-3.304 -0.005,-1.827 -1.48,-3.304 -3.307,-3.306 m 0,7.712 c -2.433,0 -4.404,-1.973 -4.407,-4.406 0.003,-2.434 1.974,-4.407 4.407,-4.408 2.435,10e-4 4.407,1.974 4.407,4.408 0,2.433 -1.972,4.405 -4.407,4.406 m 1.533,-5.778 -1.164,1.551 c 0.344,0.142 0.597,0.306 0.761,0.494 0.164,0.187 0.245,0.403 0.245,0.648 0,0.337 -0.136,0.612 -0.408,0.823 -0.272,0.211 -0.63,0.316 -1.072,0.316 l -1.552,0 c 0.094,-0.084 0.163,-0.18 0.203,-0.287 0.041,-0.107 0.061,-0.274 0.061,-0.5 l 0,-2.9 c 0,-0.226 -0.02,-0.393 -0.061,-0.503 -0.04,-0.107 -0.109,-0.205 -0.203,-0.291 l 1.228,0 c -0.096,0.086 -0.164,0.184 -0.205,0.291 -0.039,0.11 -0.058,0.277 -0.058,0.503 l 0,3.196 c 0.102,0.02 0.195,0.034 0.277,0.044 0.082,0.01 0.151,0.015 0.209,0.015 0.256,0 0.463,-0.072 0.621,-0.213 0.158,-0.142 0.237,-0.326 0.237,-0.552 0,-0.243 -0.092,-0.441 -0.275,-0.595 -0.185,-0.154 -0.476,-0.274 -0.873,-0.363 l 1.336,-1.842 c 0.107,-0.15 0.238,-0.269 0.393,-0.355 0.155,-0.086 0.314,-0.129 0.478,-0.129 l 0.055,0 0.347,0.032 c -0.124,0.112 -0.234,0.22 -0.331,0.323 -0.097,0.103 -0.18,0.201 -0.249,0.294"
         inkscape:connector-curvature="0" />
      <text
         transform="scale(1,-1)"
         id="text3099"
         x="517.78888"
         y="-860.27954"
         style="font-size:12px">
        <tspan
           id="tspan3101"
           sodipodi:role="line"
           y="-860.27954"
           x="517.78888 528.85443 539.25983 544.38434 553.83435 558.99359 569.2948 574.41931 584.35571 592.79816 597.90533 608.15436 617.10065 622.25989 634.12445 644.06085 659.86877"
           style="font-variant:normal;font-weight:bold;font-stretch:normal;font-size:17.37129974px;font-family:'FrizQuadrata BT';-inkscape-font-specification:FrizQuadrataITCbyBT-Bold;writing-mode:lr-tb;fill:#faf2f3;fill-opacity:1;fill-rule:nonzero;stroke:none">Role Playing Game</tspan>
      </text>
    </g>
  </g>
</svg>
