<?xml version="1.0" encoding="utf-8"?>
<!-- Generator: Adobe Illustrator 16.0.0, SVG Export Plug-In . SVG Version: 6.00 Build 0)  -->
<!DOCTYPE svg PUBLIC "-//W3C//DTD SVG 1.1//EN" "http://www.w3.org/Graphics/SVG/1.1/DTD/svg11.dtd">
<svg version="1.1" id="Layer_1" xmlns="http://www.w3.org/2000/svg" xmlns:xlink="http://www.w3.org/1999/xlink" x="0px" y="0px"
	 width="240px" height="40px" viewBox="0 0 240 40" enable-background="new 0 0 240 40" xml:space="preserve">
<rect x="13" y="19.145" fill="#FFFFFF" width="98.299" height="1.012"/>
<rect x="125.264" y="19.145" fill="#FFFFFF" width="101.573" height="1.012"/>
<g>
	<defs>
		<rect id="SVGID_1_" x="13" y="12.301" width="213.837" height="14.699"/>
	</defs>
	<clipPath id="SVGID_2_">
		<use xlink:href="#SVGID_1_"  overflow="visible"/>
	</clipPath>
	<path clip-path="url(#SVGID_2_)" fill="#FFFFFF" d="M118.513,26.099c-3.558,0-6.445-2.887-6.445-6.447
		c0-3.562,2.887-6.448,6.445-6.448c3.562,0,6.448,2.887,6.448,6.448C124.961,23.212,122.074,26.099,118.513,26.099 M125.601,17.563
		c-0.608-1.295-2.372-5.263-7.088-5.263c-4.715,0-6.475,3.968-7.086,5.263c-0.784,1.663-2.167,1.582-3.437,1.582v1.011
		c1.27,0,2.653-0.08,3.437,1.583c0.611,1.294,2.371,5.26,7.086,5.26c4.716,0,6.479-3.966,7.088-5.26
		c0.784-1.663,2.168-1.583,3.437-1.583v-1.011C127.769,19.146,126.385,19.227,125.601,17.563"/>
	<path clip-path="url(#SVGID_2_)" fill="#FFFFFF" d="M120.771,15.553c0.085,0.078,0.171,0.204,0.257,0.215
		c0.088,0.011,0.21-0.075,0.3-0.062c0.08,0.013,0.148,0.148,0.238,0.145c0.074-0.003,0.115-0.089,0.145-0.166
		c-0.052-0.117-0.248-0.128-0.279-0.268c-0.014-0.069,0.033-0.146,0-0.237c-0.42-0.245-1.458-0.506-1.828-0.053
		C120.119,15.077,120.497,15.292,120.771,15.553 M114.615,22.72c-0.139-0.23-0.307-0.452-0.444-0.714
		c-0.378-0.728-0.661-1.814-0.435-2.84c0.652,0.423,1.509-0.06,1.86-0.453c0.288-0.326,0.497-0.703,0.662-1.117
		c0.173-0.44,0.261-0.944,0.515-1.26c0.184-0.229,0.459-0.466,0.774-0.56c0.106-0.028,0.263-0.026,0.363-0.08
		c0.075-0.043,0.096-0.151,0.146-0.209c0.161-0.192,0.525-0.297,0.794-0.122c0.277,0.18,0.374,0.67,0.093,0.939
		c-0.234,0.224-0.668,0.19-0.869-0.02c-0.033-0.037-0.067-0.127-0.123-0.135c-0.087-0.016-0.3,0.106-0.393,0.165
		c-0.125,0.081-0.23,0.168-0.309,0.248c-0.378,0.382-0.56,1.341-0.187,1.816c0.073,0.095,0.174,0.115,0.248,0.217
		c-0.074,0.081-0.094,0.221-0.196,0.229c-0.054,0.003-0.242-0.106-0.341-0.113c-0.466-0.035-0.934,0.18-1.259,0.39
		c-0.358,0.233-0.633,0.51-0.807,0.858c-0.174,0.352-0.318,0.818-0.33,1.332c-0.009,0.379,0.076,0.762,0.198,1.043
		c0.074,0.176,0.181,0.357,0.309,0.145c-0.155-0.31-0.269-0.562-0.29-0.949c-0.027-0.474,0.069-0.805,0.196-1.167
		c0.185-0.529,0.496-0.884,0.95-1.137c0.23-0.127,0.509-0.252,0.774-0.27c0.439-0.026,0.516,0.275,0.693,0.559
		c0.038,0.06,0.098,0.14,0.155,0.229c0.047,0.07,0.11,0.213,0.166,0.216c0.087,0.007,0.164-0.144,0.217-0.206
		c-0.046-0.117-0.115-0.219-0.177-0.343c-0.056-0.109-0.153-0.261-0.144-0.38c0.006-0.075,0.09-0.21,0.144-0.26
		c0.08-0.068,0.199-0.107,0.29-0.186c0.088-0.076,0.169-0.16,0.198-0.289c-0.236-0.145-0.312,0.123-0.477,0.124
		c-0.126,0.002-0.273-0.144-0.33-0.269c-0.078-0.166-0.091-0.374-0.073-0.589c0.051-0.574,0.57-0.975,1.167-1.011
		c0.095-0.008,0.198-0.009,0.29,0.02c0.076,0.023,0.14,0.131,0.249,0.135c0.074,0.002,0.154-0.063,0.236-0.062
		c0.184,0.005,0.314,0.143,0.352,0.277c0.07,0.265-0.025,0.509-0.104,0.632c-0.089,0.136-0.269,0.239-0.413,0.309
		c-0.087,0.043-0.284,0.049-0.229,0.227c0.206-0.011,0.394-0.113,0.559-0.205c0.157-0.089,0.318-0.195,0.444-0.342
		c0.139-0.159,0.212-0.441,0.383-0.559c0.067-0.044,0.157-0.058,0.217-0.101c0.184-0.139,0.245-0.446,0.031-0.549
		c-0.038-0.021-0.12-0.005-0.166-0.021c-0.117-0.043-0.274-0.27-0.413-0.393c-0.155-0.139-0.352-0.236-0.444-0.361
		c-0.047-0.064-0.064-0.166-0.113-0.248c-0.083-0.135-0.23-0.289-0.352-0.289c-0.076,0.001-0.152,0.083-0.237,0.083
		c-0.092,0.001-0.178-0.067-0.269-0.094c-0.262-0.08-0.723-0.106-1.033-0.093c-0.857,0.04-1.531,0.24-2.005,0.733
		c0.084,0.074,0.131,0.265,0.26,0.269c0.048,0.001,0.156-0.068,0.227-0.104c0.079-0.041,0.16-0.087,0.227-0.113
		c0.202-0.078,0.818-0.189,0.838,0.103c0.009,0.136-0.191,0.29-0.281,0.402c-0.307,0.389-0.403,0.97-0.598,1.446
		c-0.127,0.315-0.305,0.62-0.506,0.857c-0.203,0.239-0.516,0.477-0.826,0.548c-0.524,0.121-0.857-0.165-1.209-0.35
		c-0.194,0.747-0.096,1.688,0.094,2.364c0.145,0.524,0.378,0.98,0.639,1.373c0.092,0.136,0.172,0.295,0.321,0.361
		C114.551,22.785,114.576,22.745,114.615,22.72 M118.426,15.396c-0.501,0.045-0.51,0.933,0.021,0.951
		c0.005-0.219-0.03-0.48-0.01-0.714C118.443,15.557,118.495,15.452,118.426,15.396 M118.6,15.396
		c-0.009,0.276,0.017,0.659-0.008,0.951C119.123,16.329,119.118,15.424,118.6,15.396 M115.101,15.994
		c0.089,0.085,0.176,0.164,0.268,0.187c-0.105-0.035-0.082-0.189,0.02-0.187c0.052,0.004,0.056,0.08,0.104,0.063
		c-0.042-0.083-0.119-0.162-0.206-0.249c-0.075-0.073-0.167-0.211-0.249-0.218c-0.082-0.006-0.144,0.092-0.144,0.136
		C114.892,15.805,115.042,15.941,115.101,15.994 M122.702,18.475c-0.015-0.219-0.069-0.427-0.103-0.662
		c-0.034-0.238-0.08-0.437-0.217-0.558c-0.1-0.087-0.326-0.126-0.31-0.278c0.01-0.139,0.241-0.127,0.215-0.006
		c0.054-0.185-0.22-0.15-0.269-0.036c-0.082,0.202,0.174,0.322,0.279,0.382c-0.164,0.015-0.412,0.136-0.341,0.341
		c0.05,0.138,0.343,0.157,0.3-0.04c-0.019,0.195-0.254,0.122-0.258-0.012c-0.005-0.211,0.42-0.255,0.434-0.02
		c0.014,0.217-0.133,0.444-0.36,0.444c-0.175-0.001-0.492-0.19-0.466-0.373c0.023-0.153,0.449-0.236,0.279-0.505
		c-0.104-0.072-0.207,0.128-0.092,0.113c-0.035,0.006-0.035-0.028-0.033-0.062c0.16-0.123,0.17,0.164-0.019,0.175
		c-0.17,0.012-0.394-0.318-0.415-0.538c-0.016-0.142,0.061-0.259,0.041-0.423c-0.025-0.227-0.271-0.323-0.279-0.061
		c0.012,0.037,0.117,0.037,0.094,0c-0.098,0.074-0.092-0.164,0.033-0.125c0.047,0.057,0.069,0.099,0.061,0.155
		c-0.021,0.124-0.383,0.235-0.444,0.102c-0.042-0.086,0.082-0.226,0.093-0.318c0.015-0.156-0.102-0.283-0.27-0.331
		c-0.07-0.019-0.106,0.014-0.154-0.042c-0.038-0.041-0.053-0.198,0.103-0.124c0.009,0.045-0.01,0.061-0.032,0.072
		c0.036-0.006,0.059-0.027,0.054-0.072c-0.082-0.103-0.203-0.021-0.197,0.072c0.011,0.181,0.439,0.108,0.423,0.321
		c-0.116,0.169-0.246-0.061-0.351-0.041c-0.079,0.015-0.038,0.122-0.155,0.113c-0.083-0.044,0.037-0.283-0.072-0.27
		c0.071,0.05-0.004,0.179,0.02,0.249c0.087,0.105,0.171,0.001,0.227-0.062c0.062,0.014,0.063,0.088,0.123,0.113
		c0.054,0.021,0.128-0.018,0.167,0.04c0.033,0.109-0.09,0.178-0.05,0.321c0.022,0.089,0.123,0.064,0.164,0.176
		c0.074,0.2-0.058,0.388-0.281,0.36c-0.107-0.012-0.21-0.091-0.298-0.092c-0.123-0.003-0.259,0.064-0.257,0.166
		c0.002,0.122,0.213,0.204,0.216,0.349c0.001,0.134-0.206,0.297-0.269,0.354c-0.085,0.074-0.258,0.252-0.393,0.121
		c0.016-0.045,0.088-0.034,0.125-0.061c0.033-0.035,0.079-0.158,0.05-0.185c0.001,0.081-0.03,0.126-0.061,0.175
		c-0.074,0.012-0.122,0.017-0.132,0.07c-0.027,0.125,0.172,0.156,0.266,0.166c-0.105,0.109-0.127,0.299-0.206,0.435
		c-0.117-0.114-0.077-0.536-0.298-0.536c-0.089,0-0.205,0.125-0.115,0.247c0.05,0.032,0.142-0.009,0.115-0.051
		c-0.137,0.161-0.187-0.173-0.022-0.166c0.1,0.004,0.124,0.181,0.124,0.279c0,0.175-0.049,0.386-0.177,0.423
		c-0.107-0.106-0.018-0.405-0.195-0.413c-0.185-0.005-0.071,0.274-0.187,0.31c-0.079,0.025-0.131-0.068-0.134-0.123
		c-0.009,0.108,0.058,0.143,0.156,0.145c0.099-0.031,0.011-0.251,0.155-0.237c0.082,0.087,0.027,0.205,0.041,0.288
		c0.031,0.179,0.134,0.139,0.309,0.156c0.067,0.006,0.156,0.032,0.228,0.093c0.122,0.101,0.141,0.487,0.123,0.713
		c-0.009,0.14-0.061,0.245-0.102,0.351c-0.041,0.104-0.08,0.285-0.166,0.299c-0.114,0.019-0.153-0.074-0.165-0.135
		c-0.023-0.123,0.047-0.208,0.103-0.247c0.062-0.042,0.184-0.039,0.197-0.102c0.006-0.036-0.037-0.088-0.063-0.073
		c0.028,0.009,0.05,0.025,0.053,0.061c-0.277,0.051-0.43,0.169-0.393,0.518c-0.051,0.071-0.146,0.066-0.165,0.165
		c-0.015,0.076,0.059,0.189-0.052,0.218c0.144,0.02,0.069-0.181,0.134-0.237c0.151-0.058,0.437,0.312,0.393,0.454
		c-0.065,0.205-0.464-0.061-0.61,0.029c-0.05,0.072-0.1,0.194-0.072,0.311c0.113,0.131,0.461-0.015,0.495,0.154
		c0.027,0.126-0.172,0.362-0.236,0.383c-0.231,0.073-0.24-0.174-0.072-0.196c-0.246,0.025-0.183,0.283,0.02,0.278
		c0.23-0.003,0.339-0.292,0.527-0.237c0.095,0.028,0.131,0.293,0.113,0.477c-0.029,0.315-0.286,0.414-0.518,0.671
		c-0.125,0.143-0.156,0.339-0.247,0.465c-0.036,0.051-0.136,0.094-0.123,0.176c0.009,0.058,0.105,0.062,0.093,0.134
		c-0.009,0.04-0.076,0.02-0.103,0.041c0.046,0.021,0.12,0.011,0.133-0.031c0.023-0.101-0.057-0.101-0.07-0.165
		c0.117-0.123,0.139,0.074,0.216,0.145c0.166,0.152,0.419,0.046,0.475-0.093c0.067-0.169-0.16-0.295-0.248-0.135
		c0.332-0.153,0.178,0.334-0.104,0.206c-0.213-0.096-0.094-0.472,0.021-0.599c0.083-0.092,0.224-0.19,0.353-0.207
		c0.063-0.007,0.099,0.026,0.163,0.012c0.077-0.019,0.095-0.1,0.145-0.187c0.025-0.031-0.042-0.035-0.019-0.093
		c0.246-0.471-0.059-1.085-0.053-1.58c0.131,0.091,0.405,0.101,0.371,0.331c-0.03,0.203-0.335,0.016-0.135-0.053
		c-0.2,0.019-0.058,0.227,0.094,0.185c0.128-0.03,0.127-0.216,0.062-0.338c0.146-0.119,0.303-0.465,0.114-0.611
		c-0.21-0.159-0.406,0.224-0.187,0.259c-0.101-0.047-0.071-0.23,0.052-0.227c0.226,0.005,0.169,0.506-0.102,0.412
		c-0.246-0.084-0.236-0.419-0.033-0.567c0.177-0.128,0.455-0.036,0.507-0.217c0.005-0.172-0.043-0.287-0.124-0.372
		c-0.057-0.016-0.119,0.055-0.196,0.04c-0.127-0.021-0.17-0.336-0.206-0.484c-0.057-0.222-0.148-0.36-0.164-0.526
		c-0.023-0.194,0.099-0.251,0.153-0.373c0.042-0.094,0.054-0.201,0.084-0.278c0.053-0.14,0.248-0.244,0.308-0.32
		c0.021,0.037,0.016,0.104,0.042,0.136c0.11-0.081,0.195-0.151,0.239-0.27c0.023-0.073,0.005-0.162,0.04-0.236
		c0.082-0.172,0.322-0.121,0.413,0c0.118,0.161,0.313,0.753,0.112,0.929c-0.207,0.184-0.269-0.218-0.09-0.176
		c0.055,0.014,0.045,0.051,0.049,0.093c0.021-0.037,0.006-0.073-0.01-0.104c-0.033-0.022-0.113,0.003-0.145-0.021
		c0.021-0.043,0.154-0.156,0.029-0.185c-0.024,0.013,0.047,0.015,0.033,0.053c-0.142,0.117-0.192,0.502,0.125,0.443
		c0.16-0.03,0.239-0.246,0.33-0.259c0.11-0.018,0.203,0.087,0.361,0.103c0.264,0.027,0.393-0.038,0.423,0.197
		c0.06,0.473-0.243,1.142-0.743,1.063c0.051-0.076,0.112-0.087,0.165-0.154c0.087-0.109,0.089-0.27,0.165-0.382
		c0.068-0.095,0.21-0.131,0.186-0.279c-0.034-0.07-0.172-0.058-0.176-0.145c-0.004-0.067,0.078-0.1,0.155-0.094
		c-0.079-0.046-0.179-0.004-0.196,0.053c-0.039,0.133,0.102,0.147,0.145,0.227c-0.102,0.208-0.23-0.041-0.309-0.103
		c-0.174-0.136-0.487-0.094-0.61,0.052c-0.062,0.075-0.155,0.281-0.031,0.393c0.099,0.087,0.358,0.06,0.351-0.104
		c-0.045,0.146-0.307,0.145-0.319-0.02c-0.011-0.146,0.146-0.271,0.258-0.291c0.256-0.042,0.33,0.133,0.331,0.271
		c0,0.191-0.137,0.34-0.331,0.361c-0.201,0.02-0.424-0.016-0.442,0.145c-0.021,0.148,0.104,0.3,0.174,0.393
		c0.166-0.041,0.315,0.007,0.463,0.021c0.117,0.009,0.242-0.038,0.322,0.03c-0.107,0.352-0.343,0.531-0.371,0.929
		c-0.033,0.462,0.25,0.748,0.412,1.023c0.082,0.143,0.207,0.42-0.031,0.443c-0.239,0.025-0.264-0.322-0.062-0.289
		c0.078,0.012,0.067,0.083,0.083,0.114c0.018-0.187-0.291-0.182-0.257,0.04c0.034,0.239,0.453,0.209,0.476-0.04
		c0.021-0.26-0.16-0.301-0.166-0.579c0.211-0.083,0.352-0.04,0.496-0.145c0.194-0.142,0.311-0.518,0.328-0.826
		c0.012-0.204-0.031-0.563,0.115-0.6c0.135-0.032,0.214,0.146,0.07,0.177c0.205-0.031,0.064-0.264-0.102-0.229
		c-0.129,0.026-0.152,0.233-0.177,0.363c-0.088-0.034-0.097-0.088-0.175-0.104c-0.342-0.068-0.309,0.44-0.042,0.288
		c-0.044,0.017-0.136,0.022-0.154-0.02c-0.073-0.338,0.298-0.208,0.341,0c0.076,0.368-0.23,0.71-0.412,0.825
		c0.145-0.235-0.08-0.34-0.146-0.464c0.097-0.129,0.349,0.193,0.33-0.082c-0.05,0.226-0.203-0.035-0.32-0.021
		c-0.259,0.027,0.058,0.302,0.062,0.361c0.004,0.074-0.106,0.238-0.194,0.238c-0.131,0-0.237-0.189-0.248-0.321
		c-0.026-0.269,0.13-0.427,0.235-0.59c0.109-0.158,0.187-0.311,0.302-0.423c0.198-0.192,0.571-0.305,0.722-0.536
		c0.08-0.123,0.122-0.375,0.031-0.497c-0.063-0.082-0.174-0.102-0.186-0.227c-0.014-0.135,0.203-0.396,0.063-0.475
		c-0.086-0.047-0.218,0.109-0.083,0.113c-0.092-0.017-0.017-0.1,0.03-0.093c0.146,0.021-0.043,0.281-0.051,0.31
		c-0.117,0.344,0.278,0.366,0.174,0.673c-0.053,0.163-0.426,0.42-0.443,0.092C122.608,19.122,122.727,18.831,122.702,18.475
		 M122.288,16.971c-0.004,0.009-0.005,0.016-0.01,0.027C122.283,16.986,122.287,16.979,122.288,16.971 M121.67,16.191
		c0.107-0.052,0.196-0.124,0.288-0.217c0.054-0.053,0.191-0.178,0.187-0.259c-0.002-0.042-0.069-0.125-0.135-0.125
		c-0.078,0.002-0.191,0.142-0.258,0.207c-0.095,0.096-0.16,0.182-0.205,0.27C121.645,15.906,121.834,16.095,121.67,16.191
		 M114.873,16.211c0.094,0.095,0.157,0.171,0.268,0.218c-0.046-0.032-0.104-0.191,0.032-0.206c0.043,0,0.085,0.104,0.102,0.063
		c-0.039-0.093-0.125-0.166-0.216-0.259c-0.077-0.077-0.161-0.212-0.258-0.218c-0.084-0.004-0.143,0.076-0.146,0.136
		C114.655,16.046,114.807,16.146,114.873,16.211 M121.762,16.294c0.03,0.011,0.06-0.07,0.113-0.071
		c0.053,0.028,0.086,0.046,0.083,0.103c-0.001,0.057-0.084,0.076-0.051,0.104c0.106-0.052,0.166-0.124,0.258-0.218
		c0.065-0.064,0.218-0.166,0.218-0.267c0-0.064-0.091-0.165-0.164-0.136C122.049,15.875,121.862,16.161,121.762,16.294
		 M121.711,16.067c-0.006-0.025-0.033-0.039-0.052-0.041c-0.083-0.012-0.187,0.218-0.217,0.289
		C121.481,16.241,121.734,16.18,121.711,16.067 M122.01,16.522c0.035-0.041,0.053-0.076,0.104-0.073
		c0.117,0.008,0.068,0.142,0.031,0.197c0.095-0.057,0.158-0.128,0.248-0.218c0.061-0.061,0.209-0.162,0.207-0.258
		c-0.002-0.06-0.103-0.146-0.156-0.125C122.282,16.114,122.071,16.394,122.01,16.522 M117.641,16.191
		c-0.044-0.102-0.113-0.177-0.227-0.207C117.476,16.067,117.554,16.135,117.641,16.191 M114.882,16.619
		c0.007,0.01,0.02,0.018,0.032,0.027C114.906,16.637,114.894,16.629,114.882,16.619 M114.882,16.619
		c-0.098-0.103,0.067-0.249,0.156-0.097c-0.031-0.102-0.11-0.17-0.208-0.27c-0.066-0.069-0.171-0.214-0.268-0.207
		c-0.057,0.006-0.107,0.077-0.113,0.113C114.431,16.325,114.755,16.523,114.882,16.619 M115.369,16.026
		c-0.015,0.004-0.04,0.025-0.043,0.053c-0.007,0.1,0.226,0.169,0.281,0.236C115.551,16.24,115.468,16,115.369,16.026
		 M121.938,16.315c-0.021-0.023-0.032-0.058-0.071-0.063c-0.103,0.081-0.171,0.196-0.237,0.311
		C121.744,16.494,121.866,16.429,121.938,16.315 M115.163,16.253c-0.168,0.117,0.176,0.244,0.248,0.311
		C115.341,16.448,115.277,16.324,115.163,16.253 M116.165,16.729c-0.234-0.144-0.492-0.267-0.754-0.382
		c-0.011,0-0.013,0.008-0.022,0.011c0.013,0.114,0.132,0.122,0.114,0.267c0.197,0.107,0.38,0.227,0.597,0.311
		C116.138,16.881,116.166,16.82,116.165,16.729 M114.048,18.506c0.383,0.374,1.134,0.073,1.134-0.466
		c0-0.319-0.304-0.581-0.598-0.372c-0.157,0.111-0.288,0.575,0.021,0.559c-0.087-0.007-0.122-0.054-0.136-0.114
		c-0.038-0.193,0.107-0.438,0.342-0.423c0.153,0.009,0.285,0.182,0.248,0.412c-0.04,0.244-0.268,0.418-0.547,0.404
		c-0.336-0.02-0.459-0.335-0.443-0.652c0.024-0.541,0.42-0.886,0.669-1.207c-0.063-0.08-0.115-0.175-0.216-0.218
		c-0.309,0.34-0.74,0.965-0.673,1.632C113.866,18.209,113.931,18.393,114.048,18.506 M122.165,16.522
		c-0.003-0.016-0.026-0.041-0.052-0.042c-0.088-0.008-0.195,0.234-0.227,0.29C121.936,16.689,122.195,16.633,122.165,16.522
		 M114.914,16.48c-0.025,0.005-0.038,0.034-0.041,0.052c-0.011,0.083,0.22,0.184,0.29,0.217
		C115.089,16.711,115.027,16.455,114.914,16.48 M121.534,17.08c0.142-0.152,0.267-0.32,0.362-0.517
		c-0.127-0.071-0.197,0.118-0.319,0.083C121.459,16.768,121.344,16.951,121.534,17.08 M123.674,19.6
		c-0.029-1.172-0.398-2.116-0.91-2.861c-0.07-0.103-0.191-0.296-0.289-0.268c-0.069,0.019-0.125,0.12-0.123,0.165
		c0,0.055,0.146,0.229,0.197,0.299c0.473,0.668,0.809,1.552,0.813,2.685c0.007,1.189-0.399,1.895-0.897,2.593
		c-0.063,0.087-0.205,0.227-0.207,0.3c0,0.075,0.229,0.287,0.31,0.279c0.055-0.005,0.187-0.195,0.248-0.289
		C123.311,21.762,123.702,20.799,123.674,19.6 M117.632,19.125c-0.078,0.098,0.007,0.329,0.101,0.352
		c0.091,0.019,0.183-0.062,0.28-0.104c0.198-0.086,0.402-0.095,0.63-0.134c0.196-0.036,0.43-0.133,0.434,0.081
		c0.005,0.229-0.3,0.199-0.207-0.018c-0.076,0.104-0.005,0.247,0.103,0.245c0.11,0,0.184-0.126,0.176-0.258
		c-0.005-0.089-0.057-0.175-0.123-0.215c-0.06-0.037-0.23-0.026-0.156-0.155c0.061-0.001,0.068,0.056,0.145,0.039
		c0.05-0.013,0.051-0.141,0-0.122c0.037,0.021,0.02,0.092-0.021,0.093c-0.065-0.005-0.063-0.076-0.134-0.062
		c-0.074,0.014-0.06,0.145-0.136,0.165c-0.08,0.021-0.173-0.036-0.183-0.104c-0.024-0.131,0.119-0.354,0.133-0.485
		c0.02-0.207-0.079-0.431-0.063-0.631c0.013-0.132,0.117-0.27,0.209-0.352c0.081-0.075,0.326-0.153,0.329-0.236
		c0.002-0.038-0.088-0.114-0.061-0.145c0.021-0.055,0.107-0.044,0.142-0.012c-0.021-0.071-0.129-0.066-0.174-0.021
		c-0.038,0.076,0.021,0.126,0.032,0.187c-0.019,0.026-0.07,0.021-0.115,0.021c-0.056-0.207-0.142-0.435-0.413-0.423
		c-0.14,0.006-0.266,0.103-0.257,0.227c0.007,0.123,0.213,0.213,0.278,0.103c-0.101,0.05-0.216,0.007-0.217-0.093
		c-0.003-0.112,0.166-0.153,0.247-0.145c0.107,0.014,0.214,0.106,0.197,0.237c-0.009,0.081-0.087,0.149-0.145,0.186
		c-0.161,0.112-0.443,0.047-0.577-0.04c-0.073-0.046-0.13-0.15-0.206-0.164c-0.122-0.026-0.247,0.088-0.269-0.074
		c-0.016,0.138,0.1,0.143,0.226,0.136c0.077,0.062,0.052,0.099,0.083,0.143c0.06,0.088,0.16,0.134,0.217,0.209
		c0.115,0.151,0.207,0.437,0.196,0.742c-0.008,0.233-0.169,0.433-0.277,0.538C117.937,18.946,117.725,19.005,117.632,19.125
		 M120.947,17.966c0.05-0.066,0.247-0.288,0.247-0.37c0-0.075-0.091-0.154-0.144-0.196c-0.221,0.279-0.529,0.681-0.796,1.002
		c-0.073,0.086-0.24,0.251-0.247,0.342c-0.009,0.079,0.048,0.177,0.103,0.237c0.199-0.169,0.366-0.401,0.567-0.663
		C120.758,18.215,120.849,18.1,120.947,17.966 M118.056,17.947c-0.095-0.327-0.402-0.439-0.694-0.568
		c-0.031,0.055-0.043,0.129-0.052,0.207c0.156,0.127,0.371,0.195,0.475,0.371C117.867,17.96,117.991,17.988,118.056,17.947
		 M115.864,17.749c0.013-0.035,0.041-0.054,0.043-0.102c-0.253-0.04-0.664-0.182-0.694-0.495c-0.014-0.164,0.081-0.338,0.228-0.312
		c-0.185-0.073-0.29,0.158-0.29,0.302C115.152,17.526,115.594,17.674,115.864,17.749 M117.341,18.132
		c0.278,0.037,0.613,0.09,0.91,0.042c0.003-0.056-0.005-0.099-0.021-0.134c-0.292,0.026-0.612-0.013-0.92-0.03
		C117.307,18.062,117.324,18.1,117.341,18.132 M117.507,15.861c0.118,0.005,0.286-0.024,0.382-0.072
		C117.755,15.767,117.594,15.803,117.507,15.861 M117.88,15.881c-0.081-0.015-0.221,0-0.26,0.063
		C117.687,15.948,117.86,15.936,117.88,15.881 M117.714,16.159c0.053-0.045,0.172-0.026,0.206-0.092
		c-0.073-0.032-0.135,0.028-0.206,0.03c-0.085-0.083-0.157-0.18-0.29-0.217C117.508,15.985,117.633,16.053,117.714,16.159
		 M116.597,16.771c0.504,0.009,0.808-0.322,0.765-0.857c-0.001-0.008-0.009-0.013-0.021-0.011c0,0.012-0.013,0.014-0.01,0.03
		c0.015,0.446-0.195,0.717-0.536,0.783C116.731,16.731,116.647,16.702,116.597,16.771 M117.279,15.966
		c-0.002-0.011-0.008-0.014-0.019-0.013c-0.006,0.013-0.012,0.023-0.021,0.031c0.001,0.329-0.147,0.541-0.393,0.619
		c-0.066,0.021-0.155,0.003-0.207,0.063C117.048,16.668,117.285,16.411,117.279,15.966 M117.889,15.984
		c-0.04-0.039-0.168-0.008-0.186,0.042C117.758,16.041,117.857,16.023,117.889,15.984 M116.701,16.563
		c0.278-0.004,0.509-0.257,0.465-0.549c0,0.016-0.014,0.016-0.011,0.031c-0.032,0.242-0.146,0.39-0.341,0.466
		C116.778,16.525,116.725,16.511,116.701,16.563 M117.414,16.191c-0.035,0.063-0.048,0.149-0.083,0.216
		c0.078-0.004,0.066-0.1,0.104-0.144c0.044,0.05,0.088-0.014,0.123-0.031c-0.021-0.068-0.073-0.107-0.134-0.135
		c-0.013,0.08,0.101,0.074,0.073,0.135C117.457,16.229,117.446,16.201,117.414,16.191 M117.084,16.129
		c-0.001-0.009-0.01-0.011-0.022-0.01c-0.048,0.161-0.179,0.239-0.289,0.34C116.939,16.412,117.039,16.299,117.084,16.129
		 M116.557,16.873c0.134,0.034,0.308-0.035,0.392-0.052c-0.062,0.081-0.087,0.204-0.146,0.289c-0.274-0.101-0.33,0.4-0.081,0.372
		c-0.041-0.059-0.109-0.062-0.125-0.146c-0.027-0.154,0.13-0.244,0.249-0.164c0.032-0.173,0.112-0.292,0.186-0.424
		c-0.101,0.015-0.21,0.068-0.321,0.083C116.66,16.838,116.584,16.811,116.557,16.873 M116.484,17.359
		c-0.006-0.205,0.113-0.334,0.3-0.312c0.013-0.038,0.035-0.067,0.03-0.124c-0.104,0.011-0.252-0.024-0.288,0.053
		c0.087,0.012,0.179-0.036,0.237,0.009C116.583,17.007,116.385,17.16,116.484,17.359 M116.722,17.215
		c-0.113,0.032-0.07,0.193,0.03,0.185C116.852,17.391,116.866,17.172,116.722,17.215 M116.413,17.441
		c0.117,0.037,0.191,0.17,0.298,0.186c-0.068-0.11-0.168-0.189-0.308-0.228C116.401,17.418,116.405,17.433,116.413,17.441
		 M116.63,17.721c0.041,0.043,0.051,0.108,0.113,0.133c0.072-0.081,0.027-0.281,0.06-0.402c-0.011,0-0.012-0.013-0.03-0.01
		c-0.047,0.094-0.006,0.232-0.051,0.34c-0.077-0.126-0.216-0.244-0.351-0.277C116.431,17.603,116.552,17.636,116.63,17.721
		 M116.299,17.699c0.044,0.098,0.163,0.127,0.227,0.206c0.022,0.025,0.03,0.065,0.052,0.095c0.054-0.012,0.161-0.108,0.195-0.012
		c-0.042,0.009-0.086,0.02-0.124,0.03c-0.012,0.029-0.05,0.077-0.019,0.113c0.036,0.025,0.167-0.033,0.184,0.032
		c-0.056,0.022-0.162-0.004-0.184,0.051c0.072,0.026,0.175-0.001,0.236-0.02c0.021-0.13-0.139-0.082-0.206-0.124
		c0.041-0.031,0.114-0.029,0.164-0.053c0.011-0.1-0.065-0.111-0.143-0.123c-0.073-0.134-0.203-0.266-0.353-0.29
		c0.078,0.115,0.314,0.176,0.291,0.321C116.501,17.86,116.451,17.729,116.299,17.699 M116.258,17.803
		c-0.001,0.019,0.003,0.031,0.008,0.042c0.155,0.069,0.245,0.202,0.291,0.382c0.055-0.018,0.027-0.099,0.021-0.125
		c-0.034-0.126-0.189-0.257-0.3-0.299H116.258z M116.403,18.317c0.166,0.027,0.388,0.015,0.505-0.049
		c-0.123-0.027-0.295,0.039-0.434,0c0.018-0.222-0.121-0.342-0.259-0.373c0.071,0.114,0.259,0.162,0.198,0.373
		c-0.143-0.002-0.214-0.072-0.341-0.084C116.114,18.262,116.271,18.299,116.403,18.317 M116.122,18.091
		c0.027,0.088,0.169,0.112,0.26,0.104c-0.029-0.1-0.111-0.2-0.207-0.195c0.006,0.074,0.131,0.088,0.124,0.144
		C116.225,18.14,116.196,18.096,116.122,18.091 M116.03,18.317c0.223,0.098,0.561,0.128,0.878,0.096
		c0.064,0.017,0.059,0.105,0.145,0.102c-0.02-0.043-0.049-0.137-0.114-0.154c-0.083-0.023-0.282,0.032-0.444,0.02
		c-0.187-0.013-0.361-0.078-0.475-0.103C116.02,18.297,116.021,18.31,116.03,18.317 M120.481,21.336
		c0.064,0.027,0.19,0.049,0.26,0.01c0.101-0.181,0.067-0.497,0.174-0.673c0.057,0.185,0.01,0.356,0.136,0.497
		c0.119,0.136,0.414,0.102,0.463,0.26c0.095,0.291-0.363,0.125-0.123,0.028c-0.182-0.01-0.082,0.23,0.093,0.187
		c0.073-0.019,0.103-0.105,0.104-0.155c0.002-0.271-0.447-0.24-0.425-0.517c0.084-0.029,0.132,0.04,0.228,0.031
		c0.037-0.028,0.068-0.062,0.062-0.134c-0.017-0.034-0.108-0.058-0.092-0.011c0.097-0.038,0.075,0.096,0.009,0.104
		c-0.031,0.002-0.249-0.158-0.258-0.197c-0.01-0.045,0.015-0.109,0.052-0.146c0.181-0.013,0.353-0.068,0.371-0.226
		c0.013-0.083-0.052-0.153-0.021-0.228c0.033-0.072,0.115-0.056,0.187-0.104c-0.123,0.026-0.17,0.016-0.217,0.082
		c-0.052,0.074,0.003,0.137-0.019,0.228c-0.041,0.148-0.209,0.086-0.271-0.01c-0.075-0.118-0.081-0.312-0.144-0.495
		c-0.066-0.186-0.13-0.298-0.157-0.487c-0.047-0.353,0.106-0.815-0.019-1.095c-0.103,0.059-0.19,0.122-0.238,0.249
		c-0.027,0.066,0.001,0.157-0.032,0.236c-0.039,0.099-0.213,0.151-0.278,0.238c-0.04,0.053-0.081,0.147-0.073,0.217
		c0.016,0.124,0.227,0.2,0.114,0.341c0.198-0.136-0.179-0.372,0.062-0.466c0.092,0.125,0.094,0.296,0.134,0.456
		c0.038,0.157,0.111,0.305,0.124,0.465C120.725,20.528,120.455,20.888,120.481,21.336 M116.422,18.546v0.124
		c0.087-0.028,0.145-0.081,0.279-0.062c0.024,0.003-0.005,0.06,0.042,0.042c0.03-0.002,0.019-0.044,0.02-0.074
		c-0.092-0.031-0.257,0.003-0.298,0.021c-0.014-0.145,0.254-0.013,0.298-0.104c-0.29-0.011-0.611-0.048-0.804-0.123
		C116.034,18.507,116.296,18.46,116.422,18.546 M115.514,18.876c-0.02,0.048,0.045,0.07,0.072,0.104
		c0.218-0.14,0.489-0.221,0.763-0.3c0.006-0.039,0.018-0.07,0-0.104c-0.178-0.01-0.304-0.072-0.454-0.114
		c-0.011,0.091,0.178,0.063,0.205,0.146c-0.122,0.014-0.196-0.023-0.266-0.063c-0.066,0.107-0.207,0.194-0.238,0.3
		c0.13-0.043,0.151-0.192,0.279-0.237c0.003,0.015,0.016,0.018,0.02,0.03c-0.004,0.066-0.09,0.048-0.101,0.104
		c0.094,0.042,0.117-0.073,0.184-0.093c0.136,0.05,0.221-0.12,0.33-0.012c-0.247,0.077-0.491,0.158-0.701,0.269
		C115.568,18.904,115.564,18.867,115.514,18.876 M117.062,18.743c0.084,0.022,0.125-0.072,0.156-0.135
		c-0.033-0.068-0.122-0.047-0.207-0.042c-0.013,0.019-0.001,0.061-0.02,0.072c-0.06-0.02-0.037-0.122-0.072-0.164
		c-0.14-0.053-0.141,0.141-0.073,0.176c0.026-0.027-0.007-0.111,0.032-0.125c0.028,0.027,0.032,0.077,0.03,0.134
		c0.05,0.003,0.07,0.039,0.124,0.041c0.022-0.02,0.016-0.065,0.03-0.092c0.042,0.011,0.081-0.034,0.093,0.011
		C117.143,18.678,117.075,18.684,117.062,18.743 M115.503,19.042c0.032-0.049-0.025-0.083-0.052-0.104
		c0,0.018-0.025,0.009-0.02,0.033C115.421,18.985,115.469,19.035,115.503,19.042 M115.265,19.074
		c-0.013,0.028,0.038,0.067,0.073,0.081c0.031-0.027,0.079-0.037,0.093-0.081c-0.025-0.021-0.032-0.06-0.073-0.063
		c-0.041,0.033,0.002,0.044,0.011,0.084C115.325,19.125,115.311,19.037,115.265,19.074 M114.811,19.559
		c-0.016-0.019-0.056-0.012-0.051-0.052c0.012-0.053,0.087-0.044,0.102-0.095c-0.103-0.014-0.107,0.073-0.174,0.095
		c-0.049-0.012-0.126-0.037-0.176-0.012c0.017,0.058,0.09,0.032,0.133,0.043c0.069,0.017,0.127,0.063,0.185,0.072
		c0.105-0.134,0.222-0.256,0.363-0.351c0-0.03-0.044-0.069,0-0.083c0.027,0.009,0.023,0.046,0.063,0.043
		c0.028-0.135-0.114-0.104-0.166-0.034c-0.003,0.042,0.045,0.034,0.043,0.074C114.995,19.331,114.915,19.455,114.811,19.559
		 M119.388,19.828c0.066-0.076,0.295-0.287,0.319-0.373c0.024-0.089-0.011-0.258-0.063-0.31h-0.009
		c-0.208,0.186-0.405,0.391-0.662,0.618c-0.103,0.095-0.206,0.192-0.33,0.29c-0.121,0.094-0.271,0.211-0.392,0.228
		c-0.178,0.023-0.191-0.104-0.279-0.104c-0.04,0-0.208,0.127-0.206,0.207c0.001,0.12,0.245,0.238,0.36,0.247
		c0.418,0.03,0.648-0.263,0.9-0.475C119.158,20.046,119.271,19.951,119.388,19.828 M115.338,22.181
		c0.02,0.004,0.036,0.01,0.047,0.018C115.377,22.184,115.363,22.177,115.338,22.181 M115.947,23.06
		c0.021,0.108,0.17,0.104,0.289,0.062c0.077,0.118,0.144,0.197,0.312,0.208c0.628,0.034,0.963-0.521,1.166-0.941
		c0.077-0.16,0.122-0.35,0.216-0.496c0.139-0.213,0.479-0.289,0.403-0.65c-0.207,0.048-0.327,0.174-0.453,0.278
		c-0.266,0.221-0.519,0.455-0.838,0.631c-0.153,0.085-0.36,0.19-0.558,0.186c-0.276-0.005-0.49-0.23-0.62-0.422
		c-0.143-0.217-0.262-0.534-0.278-0.756c-0.034-0.45,0.305-0.758,0.692-0.794c0.34-0.033,0.546,0.044,0.713,0.217
		c0.11,0.114,0.227,0.254,0.248,0.423c0.035,0.293-0.177,0.604-0.425,0.65c-0.079,0.016-0.16-0.004-0.206,0.02
		c-0.063,0.033-0.089,0.116-0.124,0.198c0.047,0.074,0.187,0.087,0.3,0.072c0.198-0.025,0.416-0.172,0.536-0.321
		c0.119-0.145,0.181-0.453,0.312-0.475c0.044-0.006,0.101,0.025,0.153,0.031c0.152,0.013,0.322-0.035,0.311-0.196
		c-0.01-0.118-0.179-0.181-0.29-0.154c-0.034-0.015,0.006-0.064-0.031-0.041c-0.009,0.091,0.106,0.042,0.145,0.061
		c-0.031,0.03-0.093,0.17,0,0.145c-0.044-0.005-0.036-0.035-0.031-0.071c0.066-0.068,0.165-0.006,0.167,0.082
		c-0.175,0.191-0.423-0.091-0.54-0.227c-0.124-0.146-0.209-0.281-0.329-0.393c-0.09-0.082-0.282-0.178-0.268-0.32
		c0.012-0.13,0.26-0.199,0.278-0.331c0.014-0.095-0.056-0.257-0.144-0.268c-0.08-0.011-0.213,0.113-0.29,0.175
		c-0.084,0.07-0.181,0.154-0.258,0.206c-0.162,0.113-0.458,0.306-0.652,0.29c-0.146-0.012-0.184-0.22-0.166-0.361
		c0.026-0.179,0.183-0.308,0.322-0.299c0.192,0.009,0.247,0.445-0.062,0.37c-0.086-0.058-0.018-0.184,0.062-0.195
		c-0.102-0.009-0.154,0.076-0.145,0.155c0.026,0.21,0.389,0.091,0.394-0.123c0.002-0.054-0.027-0.085-0.032-0.167
		c0.3,0.08,0.336-0.192,0.537-0.246c0.032,0.013,0.04,0.046,0.04,0.093c-0.014,0.035-0.081,0.042-0.092,0
		c-0.005,0.044,0.064,0.049,0.092,0.029c0.053-0.081,0.006-0.152-0.04-0.165c-0.126-0.031-0.21,0.165-0.32,0.196
		c-0.155,0.046-0.249-0.052-0.371-0.061c-0.087-0.009-0.219,0.029-0.3,0.082c-0.335,0.217-0.257,0.674-0.446,0.981
		c-0.101,0.167-0.318,0.28-0.401,0.412c-0.084,0.136-0.157,0.3-0.157,0.516c0,0.177,0.073,0.269,0.094,0.413
		c0.013,0.072,0.005,0.166,0.032,0.207c0.044,0.066,0.157,0.066,0.144,0.146c-0.008,0.054-0.071,0.065-0.124,0.061
		c0.065,0.044,0.124-0.004,0.135-0.052c0.024-0.11-0.2-0.193-0.094-0.33c0.045-0.015,0.066-0.033,0.125-0.02
		c0.149,0.035,0.093,0.274,0.123,0.423c0.047,0.212,0.27,0.051,0.182-0.004c0.005,0.013,0.005,0.033,0.004,0.057
		c-0.168,0.122-0.12-0.149-0.124-0.249c-0.004-0.088-0.057-0.227-0.124-0.278c-0.079-0.061-0.174-0.044-0.227-0.125
		c-0.039-0.06-0.03-0.391,0.053-0.381c0.039,0.004,0.039,0.117,0.061,0.163c0.027,0.06,0.065,0.117,0.123,0.115
		c0.126-0.005,0.09-0.22,0.012-0.134c0.098-0.023,0.058,0.107-0.012,0.104c-0.069-0.006-0.151-0.313-0.102-0.456
		c0.036-0.103,0.125-0.142,0.216-0.166c0.056,0.864,0.333,1.673,1.168,1.746c0.06,0.005,0.137,0.009,0.206,0
		c0.316-0.04,0.497-0.267,0.806-0.3c-0.065,0.204-0.217,0.32-0.383,0.425c-0.073-0.031-0.075-0.09-0.154-0.073
		c-0.168,0.034,0.006,0.238-0.011,0.29c-0.016,0.051-0.087,0.057-0.124,0.031c0.001,0.03,0.123,0.036,0.146-0.031
		c0.022-0.072-0.1-0.172,0-0.207c0.064,0.009,0.068,0.073,0.143,0.082c0.077,0.01,0.127-0.042,0.187-0.042
		c-0.103,0.167-0.377,0.532-0.671,0.435c-0.094-0.03-0.181-0.167-0.125-0.3c0.113-0.072,0.207,0.044,0.177,0.147
		c0.09-0.145-0.119-0.258-0.208-0.167c-0.104,0.105,0.045,0.281,0.052,0.361c-0.136,0.018-0.123-0.183-0.248-0.194
		c-0.077-0.011-0.213,0.104-0.238-0.023c-0.015-0.08,0.185-0.221,0.042-0.268C116.108,22.874,115.927,22.943,115.947,23.06
		 M114.935,19.249c-0.14,0.082-0.321,0.142-0.506,0.154c-0.154,0.009-0.364-0.054-0.486,0c-0.015,0.032,0.006,0.101-0.03,0.113
		c-0.034-0.037-0.026-0.119-0.032-0.185c-0.033-0.017-0.083-0.057-0.114-0.043c-0.029,0.158-0.037,0.291-0.041,0.486
		c0.387-0.021,0.662,0.027,0.941,0.124c-0.027-0.074-0.13-0.093-0.206-0.113c-0.198-0.053-0.435-0.065-0.682-0.063
		c0.012-0.125-0.016-0.291,0.049-0.36c0.017,0.049,0.013,0.12,0.013,0.184c0.033,0.013,0.112,0.021,0.143,0
		c0.018-0.032-0.004-0.044,0-0.092c0.027-0.017,0.092-0.067,0.115-0.02c-0.044,0.015-0.064,0.054-0.051,0.123
		c0.058,0.001,0.141,0.025,0.194,0c-0.024-0.065-0.101-0.018-0.154-0.052c0.023-0.056,0.122-0.077,0.196-0.052
		c0.019,0.028,0.001,0.088,0.022,0.113c0.17,0.03,0.318,0.088,0.475,0.134c-0.067-0.149-0.35-0.083-0.435-0.217
		c0.181-0.069,0.43-0.074,0.579-0.175c0.03-0.003,0.035,0.038,0.061,0.009C115.004,19.294,114.971,19.253,114.935,19.249
		 M117.279,20.374c0.059,0.069,0.096,0.16,0.175,0.207c0.185-0.173,0.423-0.433,0.662-0.609c0.074-0.055,0.195-0.173,0.279-0.155
		c0.091,0.019,0.062,0.161,0.154,0.196c0.117-0.062,0.229-0.131,0.301-0.237c-0.045-0.198-0.178-0.377-0.413-0.352
		c-0.239,0.025-0.465,0.236-0.652,0.404C117.576,20.016,117.38,20.204,117.279,20.374 M113.849,19.63
		c-0.007,0.003-0.01,0.009-0.008,0.021c0.313,0.03,0.644,0.043,0.878,0.155C114.607,19.637,114.097,19.619,113.849,19.63
		 M114.119,20.385c-0.032-0.188,0.062-0.331,0.113-0.485c0.156,0,0.275,0.088,0.393,0.092c-0.081-0.089-0.298-0.144-0.485-0.153
		c-0.142-0.009-0.325-0.027-0.414,0.052c0.109,0.013,0.329-0.044,0.445,0.01c-0.031,0.113-0.093,0.22-0.102,0.351
		c-0.019,0.215,0.113,0.341,0.215,0.436c-0.049,0.002-0.096-0.007-0.144,0c-0.125,0.01-0.268,0.036-0.322,0.111
		c0.139-0.035,0.373-0.062,0.559-0.081C114.318,20.581,114.149,20.555,114.119,20.385 M113.748,20.157
		c0.073,0.03,0.156-0.015,0.248,0c0.031-0.068,0.066-0.133,0.082-0.218c-0.116,0.016-0.298-0.035-0.352,0.042
		c0.07,0.021,0.217-0.022,0.3,0.01c-0.04,0.085-0.252-0.004-0.29,0.083c0.069,0.028,0.184-0.035,0.26,0
		C113.974,20.164,113.783,20.083,113.748,20.157 M114.275,19.972c-0.057,0.118-0.155,0.333-0.064,0.475
		c0.063,0.009,0.16-0.073,0.187,0c-0.026,0.046-0.14,0.006-0.144,0.072c0.029,0.03,0.087-0.038,0.123,0
		c0.008,0.051-0.062,0.021-0.062,0.063c0.008,0.023,0.06,0.004,0.083,0.01c0.017-0.068,0.043-0.129,0.051-0.206
		c-0.069-0.032-0.165,0.016-0.217,0c-0.006-0.155,0.023-0.274,0.083-0.361c0.113-0.002,0.159,0.062,0.26,0.072
		C114.529,19.998,114.394,19.993,114.275,19.972 M114.532,20.189c-0.034-0.104-0.249-0.137-0.226,0.031
		c0.038,0.025,0.131,0,0.133,0.061c-0.051,0.031-0.136-0.029-0.155,0.041c0.054,0.013,0.114,0,0.185,0.011
		c0.009-0.037,0.036-0.055,0.033-0.104c-0.038-0.031-0.139,0-0.135-0.072C114.431,20.124,114.468,20.191,114.532,20.189
		 M113.798,20.694c0.106,0.004,0.235-0.053,0.342-0.082c-0.11-0.073-0.134-0.265-0.135-0.413c-0.083,0.008-0.16,0.024-0.247,0.03
		c-0.01,0.116-0.013,0.306,0.06,0.373c0.048-0.093-0.087-0.286,0.023-0.342c0.049,0.083-0.005,0.272,0.093,0.31
		c0.034-0.072-0.119-0.298,0.029-0.32c-0.005,0.15,0.03,0.26,0.094,0.341C113.968,20.622,113.841,20.614,113.798,20.694
		 M121.35,23.39c-0.041-0.002-0.147,0.063-0.217,0.104c-0.465,0.262-1.058,0.54-1.767,0.494c-0.288-0.018-0.685-0.106-0.755-0.34
		c-0.051-0.178,0.04-0.368,0.105-0.518c0.21-0.485,0.559-0.666,0.95-0.969c-0.001-0.117-0.003-0.233-0.031-0.321
		c-0.205,0.095-0.488,0.405-0.785,0.288c-0.117-0.045-0.151-0.215-0.134-0.392c0.036-0.419,0.243-0.959,0.227-1.385h-0.021
		c-0.091,0.081-0.261,0.146-0.322,0.26c-0.066,0.126-0.074,0.321-0.113,0.496c-0.179,0.82-0.472,1.576-0.971,2.076
		c-0.205,0.203-0.446,0.386-0.805,0.412c-0.458,0.032-0.701-0.155-1.024-0.299c-0.046,0.037-0.079,0.09-0.101,0.154
		c0.293,0.207,0.682,0.383,1.157,0.351c0.729-0.05,1.195-0.522,1.445-1.042c0.088-0.181,0.141-0.397,0.29-0.549
		c0.064,0.013,0.074,0.063,0.144,0.113c0.06,0.046,0.134,0.051,0.145,0.115c0.011,0.066-0.085,0.166-0.134,0.237
		c-0.153,0.223-0.32,0.5-0.34,0.805c-0.041,0.511,0.348,0.672,0.742,0.765c0.323,0.077,0.674,0.065,1.055,0.052
		c-0.638,0.351-1.748,0.378-2.574,0.207c-0.829-0.171-1.501-0.52-2.044-0.94c-0.042,0.031-0.079,0.073-0.114,0.113
		c0.154,0.19,0.375,0.338,0.601,0.465c0.668,0.38,1.498,0.671,2.528,0.671c1.219,0,2.123-0.364,2.873-0.857
		c0.104-0.068,0.278-0.155,0.278-0.257C121.639,23.62,121.422,23.394,121.35,23.39 M116.443,21.098
		c0.023,0.287,0.302,0.16,0.32-0.042c0.012-0.142-0.068-0.248-0.114-0.289c-0.187-0.167-0.497-0.097-0.64,0.072
		c-0.194,0.228-0.166,0.608,0.051,0.806c0.095-0.042,0.159-0.092,0.166-0.187c0.007-0.095-0.069-0.149-0.082-0.248
		c-0.025-0.166,0.027-0.348,0.164-0.392c0.174-0.055,0.332,0.06,0.352,0.196C116.689,21.236,116.477,21.261,116.443,21.098
		 M116.165,22.067c0.332-0.375,0.676-0.741,0.981-1.146c-0.05-0.082-0.084-0.178-0.167-0.228c-0.03,0.063-0.153,0.103-0.176,0.207
		c-0.011,0.063,0.021,0.139,0.011,0.196c-0.026,0.152-0.177,0.266-0.34,0.206c-0.172,0.197-0.348,0.39-0.496,0.61
		C116.02,21.985,116.082,22.036,116.165,22.067 M114.088,21.222c0.07,0.032,0.175,0.085,0.227,0.031
		c-0.134-0.061-0.293-0.079-0.372-0.197c-0.026-0.038-0.044-0.091-0.051-0.154c0.082-0.032,0.217-0.072,0.33-0.072
		c0.048,0,0.115,0.045,0.133-0.011c-0.154-0.072-0.388-0.002-0.514,0.052C113.841,21.07,113.952,21.158,114.088,21.222
		 M114.355,20.942c-0.074-0.082-0.304-0.037-0.381,0.011c0.008,0.05,0.045,0.108,0.095,0.145c0.063,0.046,0.196,0.1,0.257,0.041
		c-0.104-0.041-0.239-0.051-0.278-0.155c0.09-0.02,0.187,0.126,0.288,0.063c-0.017-0.072-0.156-0.017-0.165-0.094
		C114.23,20.945,114.314,20.965,114.355,20.942 M114.326,21.366c-0.13-0.053-0.286-0.079-0.392-0.156v0.043
		C114.023,21.315,114.219,21.42,114.326,21.366 M114.336,21.623c-0.04-0.11-0.281-0.021-0.279-0.175
		c0.08,0.014,0.213,0.091,0.269,0.03c-0.099-0.051-0.25-0.052-0.342-0.112c-0.006,0.075,0.052,0.175,0.094,0.236
		C114.176,21.563,114.289,21.65,114.336,21.623 M121.752,22.687c0.043-0.041-0.087-0.235-0.113-0.278
		c-0.066-0.111-0.123-0.19-0.174-0.268c-0.18-0.261-0.451-0.675-0.828-0.711c-0.271-0.029-0.369,0.059-0.58,0.143
		c-0.002,0.12,0.015,0.22,0.041,0.311c0.2-0.063,0.409-0.224,0.643-0.135c0.05,0.02,0.121,0.074,0.163,0.113
		c0.204,0.186,0.386,0.511,0.527,0.714C121.514,22.523,121.67,22.77,121.752,22.687 M114.099,21.686
		c0.121,0.003,0.255,0.056,0.227,0.206c-0.011,0.058-0.087,0.072-0.072,0.135C114.478,21.961,114.32,21.53,114.099,21.686
		 M114.14,21.779c0.087,0.002,0.112,0.079,0.071,0.154C114.329,21.909,114.241,21.689,114.14,21.779 M120.615,21.841
		c-0.277-0.052-0.336,0.109-0.423,0.321c-0.048,0.113-0.083,0.198-0.135,0.309c-0.107,0.23-0.239,0.41-0.288,0.589
		c-0.086,0.305,0.183,0.554,0.433,0.548c0.277-0.007,0.396-0.199,0.506-0.382c0.063-0.104,0.108-0.241,0.218-0.279
		c0.032-0.012,0.22,0.017,0.278-0.072c0.083-0.128-0.062-0.302-0.165-0.176c0.035-0.017,0.092-0.031,0.135-0.012
		c0.125,0.257-0.289,0.242-0.31,0.083c-0.017-0.102,0.12-0.269,0.094-0.421c-0.018-0.096-0.163-0.242-0.291-0.125
		c-0.012,0.012-0.094,0.18,0.01,0.185c-0.115-0.162,0.159-0.244,0.198-0.083c0.051,0.216-0.192,0.605-0.26,0.662
		c-0.079-0.076-0.107-0.267-0.238-0.248c-0.075,0.013-0.097,0.126-0.132,0.207c0.229,0.052,0.191,0.427-0.053,0.411
		c-0.069-0.002-0.155-0.06-0.165-0.163c-0.01-0.104,0.082-0.246,0.144-0.342C120.364,22.555,120.564,22.208,120.615,21.841
		 M114.407,21.975c-0.048,0.043-0.093,0.085-0.123,0.146C114.349,22.138,114.419,22.033,114.407,21.975 M114.439,22.099
		c-0.002-0.008-0.008-0.011-0.02-0.01c-0.01,0.058-0.082,0.057-0.083,0.123C114.405,22.208,114.431,22.163,114.439,22.099
		 M114.461,22.378c0.023-0.023,0.067-0.037,0.041-0.083c-0.03,0-0.048,0.045-0.063,0c-0.004-0.037,0.042-0.026,0.03-0.071
		c-0.001-0.013-0.01-0.017-0.02-0.021C114.375,22.237,114.379,22.349,114.461,22.378 M115.627,22.325
		c-0.128,0.102-0.228,0.229-0.311,0.373c0.079,0.017,0.129-0.078,0.218-0.083c0.033,0.011,0.057,0.032,0.052,0.083
		c0.083-0.058,0.151-0.131,0.196-0.228C115.746,22.408,115.694,22.358,115.627,22.325 M114.544,22.378
		c-0.034,0.008-0.055,0.029-0.063,0.063C114.519,22.471,114.571,22.417,114.544,22.378 M115.213,22.45
		c-0.093,0.097-0.25,0.128-0.299,0.27c0.146,0.139,0.224-0.173,0.32-0.249C115.233,22.459,115.232,22.446,115.213,22.45
		 M122.061,22.77c0.037-0.002,0.063-0.046,0.063-0.071c0-0.101-0.275-0.195-0.318-0.248C121.864,22.513,121.96,22.781,122.061,22.77
		 M114.594,22.462c-0.035,0.008-0.053,0.027-0.062,0.062C114.566,22.547,114.624,22.503,114.594,22.462 M114.636,22.542
		c-0.004,0.03-0.055,0.017-0.042,0.064C114.628,22.643,114.69,22.563,114.636,22.542 M114.862,23.02
		c0.107-0.106,0.194-0.185,0.239-0.29c-0.034,0.064-0.221,0.111-0.217-0.031c0.001-0.06,0.087-0.073,0.062-0.113
		c-0.11,0.059-0.18,0.139-0.279,0.236c-0.072,0.069-0.236,0.177-0.228,0.3c0.003,0.057,0.068,0.122,0.136,0.125
		C114.692,23.25,114.783,23.098,114.862,23.02 M122.373,22.821c-0.098-0.097-0.169-0.174-0.27-0.236
		c-0.012,0.001-0.029-0.001-0.03,0.01c0.106,0.044,0.099,0.201-0.013,0.208c-0.062,0.001-0.09-0.09-0.123-0.063
		c0.049,0.102,0.134,0.174,0.238,0.28c0.08,0.078,0.174,0.24,0.299,0.227c0.062-0.005,0.127-0.08,0.125-0.146
		C122.596,22.994,122.44,22.891,122.373,22.821 M115.514,22.698c-0.002-0.014-0.003-0.024-0.021-0.021
		c-0.103,0.098-0.26,0.14-0.32,0.277C115.3,23.131,115.428,22.763,115.514,22.698 M121.866,22.955
		c-0.071-0.135-0.21-0.2-0.342-0.277C121.588,22.769,121.756,23.13,121.866,22.955 M115.133,23.266
		c0.1-0.102,0.213-0.193,0.225-0.298c-0.033,0.035-0.062,0.073-0.124,0.084c-0.121-0.037-0.095-0.175-0.01-0.23h-0.031
		c-0.109,0.069-0.185,0.154-0.288,0.26c-0.073,0.07-0.255,0.181-0.228,0.321c0.011,0.051,0.096,0.113,0.153,0.111
		C114.946,23.51,115.046,23.353,115.133,23.266 M122.145,23.069c-0.109-0.108-0.213-0.179-0.299-0.248
		c-0.014,0.003-0.029-0.001-0.033,0.012c0.037,0.031,0.076,0.062,0.084,0.122c-0.04,0.127-0.163,0.088-0.227,0.013
		c0.049,0.133,0.139,0.201,0.247,0.309c0.074,0.074,0.196,0.262,0.331,0.237c0.04-0.007,0.108-0.072,0.114-0.133
		C122.37,23.27,122.221,23.146,122.145,23.069 M121.566,23.276c0.02-0.016,0.037-0.032,0.051-0.051
		c-0.057-0.141-0.201-0.191-0.318-0.271C121.377,23.073,121.428,23.218,121.566,23.276 M115.493,23.276
		c0.097-0.072,0.19-0.2,0.216-0.309C115.641,23.033,115.273,23.203,115.493,23.276 M115.607,23.246
		c-0.034-0.025-0.061,0.063-0.126,0.062c-0.116-0.004-0.108-0.164-0.009-0.217h-0.031c-0.087,0.061-0.177,0.136-0.278,0.238
		c-0.079,0.079-0.228,0.181-0.217,0.298c0.007,0.07,0.083,0.126,0.144,0.125c0.108-0.004,0.21-0.159,0.279-0.227
		C115.468,23.427,115.547,23.353,115.607,23.246 M121.875,23.329c-0.105-0.103-0.189-0.182-0.277-0.238
		c-0.013,0-0.029-0.001-0.031,0.009c0.115,0.047,0.096,0.213-0.02,0.208c-0.057-0.003-0.082-0.092-0.115-0.062
		c0.059,0.11,0.139,0.178,0.238,0.279c0.069,0.07,0.178,0.238,0.299,0.227c0.053-0.005,0.123-0.065,0.123-0.135
		C122.096,23.508,121.952,23.403,121.875,23.329 M116.535,23.906c-0.016-0.015-0.008-0.054-0.04-0.053
		c-0.016,0.024-0.021,0.057-0.042,0.073c-0.009-0.026-0.029-0.04-0.031-0.073c-0.081,0.035-0.092,0.187-0.009,0.229
		c0.022-0.013,0.018-0.052,0.04-0.062c0.026,0.008,0.026,0.041,0.042,0.062c0.037,0.004,0.018-0.051,0.053-0.053
		c0,0.028-0.007,0.061,0.018,0.063c0.017-0.022,0.147,0.034,0.145-0.031c-0.022-0.006-0.068,0.013-0.072-0.009
		c0.028-0.025,0.062-0.043,0.072-0.082c-0.025-0.008-0.074,0.011-0.081-0.014c0.036,0,0.045-0.029,0.081-0.03
		c-0.022-0.058-0.102-0.057-0.154-0.081C116.535,23.853,116.558,23.903,116.535,23.906"/>
</g>
</svg>
