<?xml version="1.0" encoding="UTF-8" standalone="no"?>
<!-- Created with Inkscape (http://www.inkscape.org/) -->

<svg
   xmlns:dc="http://purl.org/dc/elements/1.1/"
   xmlns:cc="http://creativecommons.org/ns#"
   xmlns:rdf="http://www.w3.org/1999/02/22-rdf-syntax-ns#"
   xmlns:svg="http://www.w3.org/2000/svg"
   xmlns="http://www.w3.org/2000/svg"
   xmlns:sodipodi="http://sodipodi.sourceforge.net/DTD/sodipodi-0.dtd"
   xmlns:inkscape="http://www.inkscape.org/namespaces/inkscape"
   width="510"
   height="152"
   id="svg3336"
   version="1.1"
   inkscape:version="0.48.5 r10040"
   sodipodi:docname="New document 2">
  <defs
     id="defs3338" />
  <sodipodi:namedview
     id="base"
     pagecolor="#ffffff"
     bordercolor="#666666"
     borderopacity="1.0"
     inkscape:pageopacity="0.0"
     inkscape:pageshadow="2"
     inkscape:zoom="0.49497475"
     inkscape:cx="413.28533"
     inkscape:cy="602.84694"
     inkscape:document-units="px"
     inkscape:current-layer="layer1"
     showgrid="false"
     inkscape:window-width="1440"
     inkscape:window-height="834"
     inkscape:window-x="0"
     inkscape:window-y="27"
     inkscape:window-maximized="1" />
  <metadata
     id="metadata3341">
    <rdf:RDF>
      <cc:Work
         rdf:about="">
        <dc:format>image/svg+xml</dc:format>
        <dc:type
           rdf:resource="http://purl.org/dc/dcmitype/StillImage" />
        <dc:title></dc:title>
      </cc:Work>
    </rdf:RDF>
  </metadata>
  <g
     inkscape:label="Layer 1"
     inkscape:groupmode="layer"
     id="layer1"
     transform="translate(0,-900.36218)">
    <g
       id="g3469"
       transform="matrix(0.91434964,0,0,0.91434964,-9.1589306,888.37151)">
      <g
         transform="matrix(1.25,0,0,-1.25,567.68813,149.1185)"
         id="g2919">
        <path
           inkscape:connector-curvature="0"
           id="path2921"
           style="fill:#231f20;fill-opacity:1;fill-rule:nonzero;stroke:none"
           d="m 0,0 -85.488,0 c 0,0 -1.85,-16.485 -28.221,-16.485 -26.363,0 -34.738,13.661 -37.37,16.288 l -45.116,0 c 0,0 -9.952,-23.99 -39.96,-23.99 -31.886,0 -43.574,24.187 -43.574,24.187 l -80.932,0 c 0,0 -30.023,-16.429 -54.675,4.071 -23.088,19.209 -9.953,46.182 -8.369,49.073 0,0 -13.49,0.284 -22.432,-4.69 8.027,10.315 54.461,64.419 159.339,45.661 0,0 13.653,11.888 29.402,5.51 0,0 4.937,-3.06 -1.411,8.339 0,0 16.252,-0.921 26.549,-15.204 1.724,-2.394 7.346,-8.927 10.214,1.233 0,0 10.992,-7.954 10.992,-22.962 0,-20.226 22.311,-20.06 28.854,-20.06 l 152.492,0 c 0,0 20.809,2.11 21.637,-19.474 C -7.395,14.035 -7.914,7.919 0,0" />
      </g>
      <g
         transform="matrix(1.25,0,0,-1.25,531.38926,136.91825)"
         id="g2923">
        <path
           inkscape:connector-curvature="0"
           id="path2925"
           style="fill:#ffffff;fill-opacity:1;fill-rule:nonzero;stroke:none"
           d="m 0,0 c -0.399,-1.041 -1.069,-1.988 -2.018,-2.828 l 17.977,0 c -1.592,1.232 -1.896,5.193 -1.896,6.784 l 0,16.82 c 0,4.132 -1.194,7.418 -3.583,9.849 -2.386,2.436 -5.61,3.661 -9.659,3.661 -1.621,0 -3.178,-0.299 -4.681,-0.895 -1.507,-0.6 -3.083,-1.548 -4.722,-2.839 l -0.297,3.734 c -1.766,-0.277 -3.619,-0.477 -5.559,-0.618 -1.936,-0.133 -4.164,-0.207 -6.676,-0.207 l -3.506,0 c 0.918,-0.844 1.585,-1.802 1.995,-2.873 0.411,-1.065 0.618,-2.408 0.618,-4.026 l 0,-22.606 c 0,-1.591 -0.203,-2.91 -0.599,-3.956 -0.4,-1.041 -1.07,-1.988 -2.014,-2.828 l 18.65,0 C -6.891,-1.988 -7.554,-1.041 -7.965,0 -8.379,1.046 -8.582,2.365 -8.582,3.956 l 0,11.713 c 0,4.549 0.321,7.491 0.954,8.824 0.633,1.333 1.773,1.995 3.412,1.995 1.743,0 2.98,-0.8 3.712,-2.384 C 0.23,22.51 0.6,19.697 0.6,15.669 L 0.6,3.956 C 0.6,2.365 0.399,1.046 0,0" />
      </g>
      <g
         transform="matrix(1.25,0,0,-1.25,163.38088,50.530883)"
         id="g2927">
        <path
           inkscape:connector-curvature="0"
           id="path2929"
           style="fill:#ffffff;fill-opacity:1;fill-rule:nonzero;stroke:none"
           d="m 0,0 c 0,0 -1.799,0.267 -14.768,0.267 0,0 -3.782,-1.492 -11.518,-1.492 -11.887,0 -13.079,1.14 -35.793,-6.063 0,0 27.148,5.49 67.482,0.445 0,0 -30.97,1.08 -43.939,-5.4 0,0 30.744,3.768 41.741,-8.646 0,0 6.743,11.351 21.274,3.127 0.123,-0.077 0.251,-0.159 0.377,-0.244 0,0 -6.033,8.043 1.548,7.017 2.272,-0.303 4.241,-3.823 11.007,-3.823 0,0 -26.966,13.373 -13.998,22.018 0,0 -81.735,15.075 -127.495,-27.019 0,0 37.817,33.296 104.082,19.813" />
      </g>
      <g
         transform="matrix(1.25,0,0,-1.25,343.15201,123.6785)"
         id="g2931">
        <path
           inkscape:connector-curvature="0"
           id="path2933"
           style="fill:#ffffff;fill-opacity:1;fill-rule:nonzero;stroke:none"
           d="m 0,0 0,6.348 c 0,2.882 0.703,4.555 1.884,5.732 1.921,1.929 4.615,3.972 9.135,2.457 l 3.275,8.211 c 0,0 -4.611,2.108 -9.387,0.396 C 4.853,23.128 4.805,23.11 4.752,23.091 4.74,23.084 4.729,23.084 4.715,23.08 4.167,22.892 3.664,22.666 3.189,22.385 1.81,21.566 0.747,20.349 0,18.728 l -0.297,4.966 c -1.767,-0.277 -3.618,-0.477 -5.558,-0.617 -1.947,-0.134 -4.167,-0.207 -6.677,-0.207 l -3.435,0 c 0.897,-0.819 1.543,-1.759 1.944,-2.814 0.396,-1.062 0.595,-2.417 0.595,-4.086 l 0,-22.606 c 0,-1.591 -0.199,-2.909 -0.595,-3.956 -0.401,-1.041 -1.078,-1.988 -2.017,-2.828 l 23.302,0 C 1.311,-10.308 0,-4.337 0,0" />
      </g>
      <g
         transform="matrix(1.25,0,0,-1.25,254.16401,94.343133)"
         id="g2935">
        <path
           inkscape:connector-curvature="0"
           id="path2937"
           style="fill:#ffffff;fill-opacity:1;fill-rule:nonzero;stroke:none"
           d="m 0,0 c 0,0 1.539,-5.292 1.539,-12.128 0,-6.84 -6.384,-32.395 13.528,-28.779 0,0 -8.268,0.428 -7.098,9.714 C 12.113,1.662 0,0 0,0" />
      </g>
      <g
         transform="matrix(1.25,0,0,-1.25,312.77476,103.40625)"
         id="g2939">
        <path
           inkscape:connector-curvature="0"
           id="path2941"
           style="fill:#ffffff;fill-opacity:1;fill-rule:nonzero;stroke:none"
           d="m 0,0 0.541,0.438 c 1.584,-1.848 4.286,-5.16 6.587,-8.761 -2.057,5.788 -8.623,19.475 -25.911,24.96 -4.867,1.543 -10.289,2.342 -16.118,2.368 -5.756,0.03 -10.778,0.715 -14.93,2.033 -5.07,1.606 -8.624,4.119 -9.985,7.087 -0.734,1.58 -0.792,3.212 -0.17,4.697 2.164,5.156 14.396,6.358 16.817,6.548 l -0.059,0.291 c -2.066,-0.07 -14.668,-0.725 -23.902,-5.888 -0.348,-0.189 -0.675,-0.385 -0.999,-0.592 l 0,0.004 0,-0.008 c -2.599,-1.614 -4.449,-3.486 -5.567,-5.626 -4.197,-3.186 -10.378,-5.803 -17.196,-1.751 0,0 6.911,-12.945 21.66,-11.184 l 0,0.008 c 0.725,-1.447 1.744,-2.961 3.153,-4.531 -0.388,1.055 -0.844,2.473 -1.085,3.787 l 0.622,0.263 c 0.049,-0.064 5.77,-7.618 10.389,-9.368 -1.392,1.129 -2.571,4.123 -3.508,6.267 l -0.497,1.131 1.014,-0.71 c 3.362,-4.752 8.655,-6.963 9.269,-7.028 -0.808,2.672 -0.797,5.592 -0.797,5.592 l 0.708,-0.037 c 0.067,-0.004 6.823,-0.418 13.116,-2.414 5.567,-1.769 9.623,-4.845 10.348,-6.906 0.562,2.276 -0.525,5.449 -2.931,6.496 l -0.044,0.318 c 10.985,-1.233 29.454,-23.417 12.103,-38.891 -16.596,-14.808 -43.029,-1.758 -50.077,24.661 -4.219,15.811 -15.13,18.383 -22.724,21.573 11.251,-7.054 17.554,-15.778 19.049,-26.962 0.563,-4.238 1.447,-7.988 2.58,-11.329 -3.479,4.892 -6.551,11.451 -6.551,11.451 3.098,-13.246 11.702,-23.458 11.702,-23.458 2.688,-3.305 4.069,-4.097 4.546,-3.534 16.877,-15.489 44.739,-6.477 49.561,-2.557 -0.351,-0.57 -0.695,-1.126 -1.022,-1.647 -1.602,-2.654 -3.485,-4.675 -4.748,-5.878 2.495,1.062 4.667,2.55 6.57,4.264 -0.323,-1.578 -0.67,-2.673 -0.67,-2.673 1.588,2.073 2.894,4.135 3.974,6.156 5.161,6.336 7.332,13.542 7.37,13.66 0.536,1.739 0.5,2.269 0.455,2.417 -0.14,-0.034 -0.351,-0.181 -0.615,-0.418 C 5.447,-16.351 4.878,-6.347 0,0 m -54.938,33.021 c 1.842,-0.58 4.156,-2.113 5.481,-6.006 0.388,2.872 1.865,7.89 7.302,10.363 l -0.03,0.052 c -1.429,-0.119 -9.319,-0.933 -14.157,-4.116 0.397,-0.04 0.881,-0.129 1.404,-0.293 m 38.839,-8.512 c 0.709,-0.225 1.509,-0.366 2.28,-0.448 -4.854,1.818 -9.711,6.37 -12.984,9.435 -1.296,1.217 -2.324,2.172 -2.843,2.461 -0.348,0.192 -0.696,0.355 -1.065,0.47 -0.622,0.192 -1.221,0.262 -1.858,0.333 l -0.119,0.014 c -0.747,0.089 -1.487,0.186 -2.346,0.456 -0.315,0.096 -0.63,0.222 -0.937,0.352 -3.141,1.361 -4.585,3.156 -3.978,4.926 0.68,1.939 4.781,1.328 5.241,1.247 l 0.118,-0.019 0.085,-0.089 c 0.733,-0.788 1.166,-2.046 1.359,-2.723 0.399,0.192 1.065,0.396 2.053,0.358 0.145,-0.007 0.278,-0.029 0.401,-0.07 1.053,-0.333 1.142,-1.71 1.098,-2.543 0.489,0.333 0.718,0.804 0.807,1.037 -1.77,2.487 -3.989,3.597 -5.544,4.093 -2.232,0.707 -4.589,0.6 -6.007,-0.274 -0.622,-0.384 -0.996,-0.881 -1.088,-1.447 -0.411,-2.557 0.936,-4.363 4.655,-6.236 0.708,-0.359 1.47,-0.663 2.322,-0.937 1.066,-0.336 2.106,-0.566 3.004,-0.751 l 0.334,-0.074 c 0.814,-0.166 1.517,-0.311 2.109,-0.499 0.659,-0.211 1.101,-0.453 1.389,-0.763 1.095,-1.181 3.453,-2.894 7.361,-5.737 l 0.065,-0.048 c 2.06,-1.495 3.294,-3.408 4.013,-4.955 -0.251,1.225 -0.599,2.035 -0.606,2.047 l -0.323,0.735 0.759,-0.266 c 0.081,-0.03 0.159,-0.059 0.245,-0.085 M -50.05,50.002 c -5.089,1.865 -12.869,3.19 -21.448,-0.785 0.882,0.071 1.962,0.156 2.877,0.082 1.642,-0.133 4.201,-0.57 5.688,-1.121 0.655,-0.237 1.085,-0.481 1.31,-0.752 0.185,-0.214 0.4,-0.366 0.644,-0.463 0.408,-0.144 0.755,-0.066 0.762,-0.066 l 0.037,0.012 0.045,0 c 5.547,-0.005 10.778,-0.378 14.338,-1.019 2.424,-0.432 3.668,-0.54 4.293,-0.548 -1.221,0.944 -4.293,3.109 -8.546,4.66 m 24.339,-23.731 c -1.569,-0.322 -3.86,-0.677 -3.978,-0.692 l -0.67,-0.104 0.306,0.6 1.251,2.432 -2.96,-0.111 -0.5,-0.02 0.159,0.475 0.658,1.991 -1.546,-0.193 -0.178,-0.026 -0.119,0.137 c -1.924,2.073 -6.717,5.052 -7.646,5.618 -1.184,-0.558 -2.065,-1.091 -2.631,-1.473 0.766,-0.081 1.499,-0.229 2.18,-0.447 4.189,-1.33 6.055,-4.801 7.558,-7.595 0.191,-0.359 0.382,-0.703 0.565,-1.032 1.529,-2.725 6.214,-4.416 7.477,-4.827 l 0,0.008 c -1.395,1.532 -1.742,2.446 -1.758,2.484 l -0.063,0.177 0.111,0.148 1.784,2.45 z M -66.83,42.056 c 7.15,1.944 21.033,1.532 23.15,1.458 0.044,0.104 0.111,0.193 0.178,0.278 -32.929,4.571 -36.686,-6.584 -36.826,-7.065 l -0.008,-0.008 c 0.067,0.081 0.133,0.162 0.196,0.255 4.535,6.033 12.437,5.201 13.31,5.082 M -78.781,28.04 c -0.015,-0.148 -0.022,-0.263 -0.022,-0.352 0.251,0.237 0.644,0.692 1.021,1.137 2.344,2.727 7.218,8.405 15.915,10.429 11.844,2.757 16.732,2.373 18.091,2.147 0.004,0.044 0.015,0.089 0.015,0.137 -2.37,0.089 -14.816,0.422 -22.332,-1.647 -8.244,-2.266 -12.354,-7.732 -12.688,-11.851 m 48.31,19.62 c 2.912,-1.488 2.923,-2.91 2.92,-3.065 l -0.025,-0.429 -0.438,0.018 c -0.72,0.045 -1.902,0.352 -1.95,0.367 l -0.125,0.029 -0.086,0.1 c -0.5,0.551 -0.851,2.187 -0.918,2.502 l -0.185,0.885 0.807,-0.407 z m -30.657,8.445 c 1.815,-0.61 3.38,-1.454 4.657,-2.509 0.558,-0.059 3.164,-0.404 6.699,-1.588 4.212,-1.418 8.013,-3.438 11.303,-6.01 0.478,-0.012 2.258,-0.108 4.391,-0.826 2.619,-0.88 6.101,-2.835 7.823,-7.176 l 0.015,-0.052 0.007,-0.048 c 0.01,-0.115 0.244,-2.398 0.306,-3.716 0.427,0.366 1.048,1.003 1.649,1.973 l 0.094,0.159 0.186,0.011 c 0.029,0 0.215,0 0.481,-0.085 0.526,-0.178 1.526,-0.781 2.266,-2.82 l 0.011,-0.048 0.008,-0.048 c 0.003,-0.086 0.14,-2.07 0.136,-2.962 0.004,0.004 0.008,0.008 0.011,0.016 l 0.137,0.114 c 2.17,1.836 3.201,3.779 3.08,5.762 l -0.016,0.263 0.251,0.089 c 0.112,0.037 2.7,0.929 2.214,3.269 -0.141,0.677 -0.321,1.276 -0.496,1.847 -0.429,1.431 -0.811,2.686 -0.373,4.577 -0.071,-0.107 -0.148,-0.225 -0.233,-0.37 -0.408,-0.696 -0.471,-1.987 -0.53,-3.031 -0.04,-0.773 -0.077,-1.439 -0.24,-1.851 -0.362,-0.921 -1.503,-2.527 -3.198,-1.961 -0.158,0.055 -0.315,0.126 -0.474,0.211 -0.854,0.477 -1.975,1.843 -3.265,3.439 -1.346,1.635 -2.868,3.512 -4.123,4.311 l -0.347,0.218 c -2.358,1.514 -4.796,3.076 -5.5,5.423 -0.332,1.128 -3.182,3.534 -4.945,4.445 0.138,-0.378 0.352,-0.903 0.686,-1.577 0.654,-1.318 0.824,-2.284 0.528,-2.95 -0.185,-0.407 -0.528,-0.684 -1.021,-0.817 -0.21,-0.06 -0.433,-0.045 -0.659,0.021 -0.844,0.285 -1.643,1.499 -2.487,2.787 -0.477,0.733 -0.969,1.488 -1.443,2.021 -0.966,1.066 -2.987,2.002 -4.294,2.488 1.381,-1.122 3.391,-3.083 3.413,-5.727 l 0,-0.166 -0.141,-0.107 c -0.037,-0.03 -0.918,-0.7 -2.095,-0.311 -0.278,0.093 -0.547,0.244 -0.814,0.44 l -0.11,0.085 c -2.266,1.74 -4.816,3.094 -7.581,4.023 -5.936,1.992 -12.302,1.899 -18.923,-0.285 0.262,0 0.678,0.015 1.299,0.075 5.602,0.503 9.43,-0.282 11.657,-1.026" />
      </g>
      <g
         transform="matrix(1.25,0,0,-1.25,406.85688,137.697)"
         id="g2943">
        <path
           inkscape:connector-curvature="0"
           id="path2945"
           style="fill:#ffffff;fill-opacity:1;fill-rule:nonzero;stroke:none"
           d="m 0,0 c 0,0 -1.051,1.889 -1.851,6.203 0,0 -6.062,-1.246 -6.062,6.477 l 0,5.963 c 0,3.905 -0.26,6.691 -0.771,8.357 -0.506,1.658 -1.345,3.109 -2.515,4.327 -1.34,1.365 -3.08,2.386 -5.204,3.06 -2.124,0.667 -4.734,1.004 -7.813,1.004 -1.296,0 -2.632,-0.108 -4.015,-0.337 -1.377,-0.222 -2.888,-0.571 -4.528,-1.04 l -3.578,-8.169 c 1.783,0.718 3.486,1.255 5.092,1.6 1.599,0.351 3.135,0.521 4.6,0.521 1.595,0 2.795,-0.297 3.603,-0.892 0.806,-0.599 1.213,-1.466 1.213,-2.613 0,-1.913 -2.365,-3.342 -7.088,-4.29 -1.691,-0.325 -3.034,-0.61 -4.03,-0.859 -3.527,-0.842 -6.181,-2.175 -7.947,-3.985 -1.764,-1.818 -2.646,-4.119 -2.646,-6.906 0,-3.305 1.192,-6.03 3.561,-8.169 2.376,-2.134 5.415,-3.209 9.119,-3.209 0.474,0 1.066,0.012 1.777,0.041 0.703,0.026 1.621,0.086 2.739,0.189 l 3.212,6.784 -0.599,0 c -1.643,0 -2.94,0.407 -3.878,1.21 -0.949,0.808 -1.418,1.91 -1.418,3.305 0,1.288 0.477,2.387 1.435,3.283 0.955,0.892 2.854,1.887 5.689,2.979 l 0,-2.653 c 0,-0.848 -0.048,-1.984 0,-3.334 l 0,-0.426 c 0,-0.937 0.096,-1.818 0.277,-2.658 0.834,-5.566 3.935,-13.094 15.112,-19.526 0,0 -3.012,6.421 -0.555,9.829 C -4.607,-0.521 0,0 0,0" />
      </g>
      <g
         transform="matrix(1.25,0,0,-1.25,196.82026,117.14525)"
         id="g2947">
        <path
           inkscape:connector-curvature="0"
           id="path2949"
           style="fill:#ffffff;fill-opacity:1;fill-rule:nonzero;stroke:none"
           d="m 0,0 0,16.628 c 0,4.127 -5.493,15.445 -14.905,16.067 0.845,-0.796 1.448,-1.673 1.81,-2.613 0.366,-0.948 0.549,-2.154 0.549,-3.609 l 0,-9.675 c -1.481,0.823 -2.814,1.415 -4.002,1.781 -1.18,0.363 -2.365,0.544 -3.553,0.544 -4.467,0 -8.22,-1.692 -11.27,-5.078 -3.041,-3.378 -4.56,-7.653 -4.56,-12.805 0,-5.193 1.97,-8.931 4.45,-12.422 6.402,-9.037 18.283,-7.52 18.504,-7.497 l -1.384,9.359 -0.544,0 c -2.738,0 -4.822,0.947 -6.258,2.839 -1.432,1.892 -2.154,4.637 -2.154,8.238 0,3.009 0.519,5.352 1.54,7.044 1.028,1.683 2.45,2.527 4.275,2.527 1.78,0 3.023,-0.64 3.741,-1.932 0.718,-1.288 1.081,-3.763 1.081,-7.431 l 0,-6.729 c 0,-9.552 3.361,-12.602 3.361,-12.602 6.924,-6.925 20.112,0.555 20.112,0.555 C -1.995,-16.811 0,-1.125 0,0" />
      </g>
      <g
         transform="matrix(1.25,0,0,-1.25,420.91563,116.32675)"
         id="g2951">
        <path
           inkscape:connector-curvature="0"
           id="path2953"
           style="fill:#ffffff;fill-opacity:1;fill-rule:nonzero;stroke:none"
           d="m 0,0 c -0.78,1.302 -1.172,3.224 -1.172,5.759 0,1.643 0.392,2.92 1.172,3.826 0.781,0.907 1.892,1.367 3.34,1.367 1.49,0 2.612,-0.644 3.371,-1.929 C 7.474,7.747 7.85,5.862 7.85,3.375 7.85,1.662 7.474,0.34 6.711,-0.581 5.952,-1.5 4.854,-1.962 3.413,-1.962 1.921,-1.962 0.781,-1.306 0,0 m 21.241,-14.623 c -2.739,2.072 -6.299,3.112 -10.707,3.112 -1.218,0 -2.639,-0.1 -4.267,-0.292 -1.632,-0.204 -2.658,-0.303 -3.08,-0.303 -0.696,0 -1.25,0.114 -1.658,0.355 -0.414,0.232 -0.614,0.541 -0.614,0.914 0,1.095 1.403,1.725 4.211,1.903 2.288,0.143 4.139,0.385 5.56,0.706 3.234,0.744 5.729,2.15 7.498,4.197 1.766,2.051 2.647,4.575 2.647,7.554 0,1.439 -0.23,2.71 -0.685,3.809 -0.463,1.095 -1.229,2.172 -2.294,3.241 l 4.137,0 5.989,9.25 c -8.077,-3.386 -24.743,-2.01 -25.457,-2.01 -4.678,0 -8.579,-1.329 -11.703,-3.994 -3.12,-2.664 -4.678,-5.932 -4.678,-9.811 0,-2.634 0.77,-4.956 2.31,-6.959 1.546,-1.997 3.86,-3.712 6.939,-5.129 l -4.881,-2.35 c 0.614,-2.638 1.465,-4.508 2.535,-5.611 1.069,-1.107 2.561,-1.661 4.474,-1.661 0.548,0 1.429,0.047 2.65,0.147 1.222,0.104 2.177,0.153 2.872,0.153 2.314,0 4.115,-0.467 5.412,-1.396 1.287,-0.94 1.939,-2.224 1.939,-3.864 0,-2.113 -0.707,-3.716 -2.11,-4.793 -1.406,-1.085 -3.465,-1.621 -6.174,-1.621 -2.064,0 -3.749,0.415 -5.055,1.247 -1.302,0.837 -1.958,1.895 -1.958,3.19 0,0.775 0.256,1.47 0.765,2.091 0.511,0.619 1.274,1.141 2.295,1.562 -1.465,0.423 -2.597,0.711 -3.374,0.859 -0.785,0.152 -1.503,0.223 -2.146,0.223 -2.289,0 -4.221,-0.644 -5.805,-1.936 -1.577,-1.296 -2.364,-2.813 -2.364,-4.553 0,-3.005 1.661,-5.33 4.996,-6.954 3.331,-1.635 8.079,-2.446 14.249,-2.446 6.687,0 11.965,1.183 15.837,3.542 3.863,2.361 5.803,5.562 5.803,9.589 0,3.283 -1.369,5.963 -4.108,8.039" />
      </g>
      <g
         transform="matrix(1.25,0,0,-1.25,481.53951,128.7535)"
         id="g2955">
        <path
           inkscape:connector-curvature="0"
           id="path2957"
           style="fill:#ffffff;fill-opacity:1;fill-rule:nonzero;stroke:none"
           d="m 0,0 c -1.132,-1.817 -2.816,-2.724 -5.056,-2.724 -2.164,0 -3.848,1.095 -5.055,3.283 -1.202,2.184 -1.806,5.274 -1.806,9.249 0,3.483 0.574,6.125 1.732,7.932 1.159,1.802 2.838,2.698 5.056,2.698 2.188,0 3.874,-1.074 5.056,-3.224 C 1.104,15.063 1.699,12.01 1.699,8.054 1.699,4.497 1.134,1.813 0,0 m 10.168,22.64 c -3.931,3.682 -8.846,5.525 -14.738,5.525 -6.169,0 -11.319,-1.902 -15.441,-5.692 -4.131,-3.79 -6.196,-8.497 -6.196,-14.116 0,-5.296 1.961,-9.778 5.877,-13.45 3.916,-3.668 8.839,-5.5 14.754,-5.5 6.164,0 11.316,1.877 15.44,5.633 4.131,3.753 6.196,8.454 6.196,14.098 0,5.322 -1.97,9.822 -5.892,13.502" />
      </g>
      <g
         transform="matrix(1.25,0,0,-1.25,84.27388,138.07175)"
         id="g2959">
        <path
           inkscape:connector-curvature="0"
           id="path2961"
           style="fill:#ffffff;fill-opacity:1;fill-rule:nonzero;stroke:none"
           d="m 0,0 c -11.128,0 -20.152,11 -20.152,24.561 0,13.572 9.024,24.568 20.152,24.568 11.129,0 20.146,-10.996 20.146,-24.568 C 20.146,11 11.129,0 0,0 m 0,57.427 c -19.574,0 -35.444,-14.712 -35.444,-32.866 0,-18.146 15.87,-32.858 35.444,-32.858 19.576,0 35.442,14.712 35.442,32.858 0,18.154 -15.866,32.866 -35.442,32.866" />
      </g>
      <g
         transform="matrix(1.25,0,0,-1.25,148.10926,131.06613)"
         id="g2963">
        <path
           inkscape:connector-curvature="0"
           id="path2965"
           style="fill:#ffffff;fill-opacity:1;fill-rule:nonzero;stroke:none"
           d="m 0,0 0,44.342 c -4.652,4.652 -15.281,2.325 -17.824,2.143 4.433,-2.835 5.31,-12.047 5.31,-14.419 l 0,-32.066 c 0,-4.989 -2.194,-6.844 -3.075,-7.632 6.676,0.54 11.862,-0.066 18.679,-0.066 C -0.111,-7.698 0,-2.973 0,0" />
      </g>
      <g
         transform="matrix(1.25,0,0,-1.25,561.86788,96.543383)"
         id="g2967">
        <path
           inkscape:connector-curvature="0"
           id="path2969"
           style="fill:#191817;fill-opacity:1;fill-rule:nonzero;stroke:none"
           d="M 0,0 C -2.152,0 -3.893,1.741 -3.893,3.888 -3.893,6.037 -2.152,7.773 0,7.781 2.145,7.773 3.88,6.037 3.885,3.888 3.88,1.741 2.145,0 0,0 m -0.001,8.63 c -2.619,0 -4.744,-2.121 -4.744,-4.742 0,-2.619 2.125,-4.748 4.744,-4.748 2.621,0 4.739,2.129 4.739,4.748 0,2.621 -2.118,4.742 -4.739,4.742 M 1.651,2.409 0.392,4.082 c 0.37,0.155 0.644,0.329 0.822,0.533 0.174,0.199 0.26,0.433 0.26,0.698 0,0.36 -0.142,0.66 -0.438,0.886 -0.296,0.225 -0.677,0.34 -1.155,0.34 l -1.673,0 c 0.104,-0.096 0.178,-0.193 0.223,-0.307 0.045,-0.115 0.065,-0.294 0.065,-0.54 l 0,-3.124 c 0,-0.245 -0.02,-0.422 -0.065,-0.541 C -1.614,1.913 -1.688,1.809 -1.792,1.712 l 1.325,0 C -0.57,1.809 -0.641,1.913 -0.688,2.027 -0.726,2.146 -0.752,2.323 -0.752,2.568 l 0,3.442 c 0.111,0.018 0.212,0.036 0.301,0.047 0.089,0.007 0.162,0.015 0.225,0.015 0.278,0 0.499,-0.077 0.67,-0.229 C 0.615,5.692 0.696,5.496 0.696,5.251 0.696,4.992 0.6,4.777 0.399,4.615 0.203,4.444 -0.111,4.306 -0.54,4.219 L 0.898,2.234 C 1.014,2.072 1.159,1.946 1.325,1.849 1.492,1.76 1.658,1.712 1.836,1.712 l 0.059,0 0.377,0.038 C 2.14,1.868 2.021,1.986 1.917,2.097 1.806,2.209 1.725,2.312 1.651,2.409" />
      </g>
      <g
         transform="matrix(1.25,0,0,-1.25,332.75163,65.104253)"
         id="g2971">
        <path
           inkscape:connector-curvature="0"
           id="path2973"
           style="fill:#231f20;fill-opacity:1;fill-rule:nonzero;stroke:none"
           d="m 0,0 c 0.674,0.167 1.188,0.466 1.54,0.885 0.351,0.418 0.528,0.943 0.528,1.562 0,0.585 -0.158,1.044 -0.476,1.38 -0.321,0.34 -0.76,0.507 -1.314,0.507 -0.079,0 -0.137,0 -0.174,-0.004 C 0.066,4.327 0.037,4.323 0,4.308 L 0,0 z m 0.725,-6.44 -5.011,0 c 0.266,0.252 0.456,0.523 0.567,0.815 0.107,0.299 0.166,0.776 0.166,1.428 l 0,8.217 c 0,0.677 -0.059,1.158 -0.166,1.439 -0.111,0.278 -0.301,0.544 -0.567,0.785 l 4.937,0 C 2.303,6.244 3.535,5.963 4.35,5.396 5.16,4.837 5.566,3.99 5.566,2.857 5.566,2.18 5.378,1.591 5.004,1.088 4.627,0.589 4.05,0.148 3.257,-0.229 L 5.548,-4.16 C 5.744,-4.482 5.981,-4.83 6.262,-5.185 6.548,-5.541 6.873,-5.903 7.239,-6.273 L 5.129,-6.477 C 5.071,-6.484 5.001,-6.487 4.934,-6.491 l -0.315,0 c -0.659,0 -1.207,0.166 -1.651,0.495 -0.445,0.341 -0.881,0.933 -1.328,1.785 L 0,-0.996 0,-4.197 c 0,-0.652 0.053,-1.129 0.167,-1.428 0.111,-0.292 0.3,-0.563 0.558,-0.815" />
      </g>
      <g
         transform="matrix(1.25,0,0,-1.25,348.25088,71.118003)"
         id="g2975">
        <path
           inkscape:connector-curvature="0"
           id="path2977"
           style="fill:#231f20;fill-opacity:1;fill-rule:nonzero;stroke:none"
           d="m 0,0 c 0.548,0 0.958,0.222 1.236,0.666 0.278,0.444 0.413,1.1 0.413,1.965 0,0.973 -0.143,1.717 -0.431,2.247 C 0.925,5.403 0.51,5.666 -0.023,5.666 -0.563,5.666 -0.974,5.447 -1.259,5.007 -1.54,4.563 -1.681,3.919 -1.681,3.064 -1.681,2.091 -1.537,1.336 -1.24,0.799 -0.944,0.266 -0.533,0 0,0 m -5.182,2.713 c 0,1.372 0.507,2.52 1.517,3.453 1.015,0.925 2.273,1.391 3.783,1.391 1.44,0 2.642,-0.447 3.605,-1.35 0.962,-0.904 1.444,-2.003 1.444,-3.306 0,-1.38 -0.509,-2.535 -1.519,-3.449 -1.006,-0.925 -2.265,-1.38 -3.779,-1.38 -1.446,0 -2.653,0.444 -3.615,1.347 -0.955,0.895 -1.436,1.995 -1.436,3.294" />
      </g>
      <g
         transform="matrix(1.25,0,0,-1.25,355.82776,73.154133)"
         id="g2979">
        <path
           inkscape:connector-curvature="0"
           id="path2981"
           style="fill:#231f20;fill-opacity:1;fill-rule:nonzero;stroke:none"
           d="m 0,0 c 0.229,0.208 0.396,0.44 0.489,0.696 0.099,0.252 0.148,0.577 0.148,0.97 l 0,9.482 c 0,0.393 -0.049,0.715 -0.148,0.97 C 0.396,12.366 0.229,12.599 0,12.813 l 0.94,0 c 0.548,0 1.066,0.019 1.554,0.052 0.489,0.037 0.97,0.093 1.438,0.167 l 0,-11.366 C 3.932,1.273 3.976,0.948 4.078,0.696 4.178,0.44 4.338,0.208 4.567,0 L 0,0 z" />
      </g>
      <g
         transform="matrix(1.25,0,0,-1.25,370.08688,65.524753)"
         id="g2983">
        <path
           inkscape:connector-curvature="0"
           id="path2985"
           style="fill:#231f20;fill-opacity:1;fill-rule:nonzero;stroke:none"
           d="m 0,0 c 0,0.447 -0.097,0.789 -0.296,1.025 -0.192,0.233 -0.482,0.348 -0.866,0.348 -0.37,0 -0.667,-0.118 -0.881,-0.367 C -2.258,0.77 -2.376,0.425 -2.395,0 L 0,0 z m 3.278,-1.654 -5.748,0 c 0,-0.037 0,-0.093 -0.006,-0.167 -0.004,-0.074 -0.011,-0.122 -0.011,-0.144 0,-0.8 0.244,-1.425 0.733,-1.873 0.487,-0.448 1.158,-0.674 2.021,-0.674 0.377,0 0.813,0.074 1.309,0.222 0.497,0.152 1.096,0.393 1.807,0.737 L 2.709,-5.73 C 2.039,-5.955 1.447,-6.118 0.918,-6.218 0.396,-6.322 -0.114,-6.369 -0.614,-6.369 c -1.636,0 -2.932,0.429 -3.887,1.276 -0.954,0.848 -1.428,1.988 -1.428,3.416 0,1.396 0.458,2.543 1.376,3.446 0.914,0.896 2.08,1.351 3.494,1.351 1.282,0 2.322,-0.422 3.127,-1.255 0.808,-0.836 1.21,-1.928 1.21,-3.275 l 0,-0.244 z" />
      </g>
      <g
         transform="matrix(1.25,0,0,-1.25,389.84026,57.299633)"
         id="g2987">
        <path
           inkscape:connector-curvature="0"
           id="path2989"
           style="fill:#231f20;fill-opacity:1;fill-rule:nonzero;stroke:none"
           d="m 0,0 c 1.26,0 2.251,-0.307 2.98,-0.921 0.732,-0.615 1.1,-1.444 1.1,-2.487 0,-1.17 -0.393,-2.084 -1.171,-2.754 -0.784,-0.67 -1.849,-1.003 -3.205,-1.003 -0.154,0 -0.399,0.011 -0.744,0.037 l -0.044,0 c 0.593,0.311 1.029,0.711 1.314,1.188 0.282,0.477 0.421,1.066 0.421,1.765 0,0.689 -0.177,1.237 -0.525,1.644 -0.348,0.403 -0.829,0.611 -1.436,0.614 l 0,-8.523 c 0,-0.652 0.06,-1.129 0.171,-1.429 0.111,-0.292 0.295,-0.563 0.554,-0.815 l -5.007,0 c 0.263,0.252 0.455,0.523 0.566,0.815 0.112,0.3 0.164,0.777 0.164,1.429 l 0,8.216 c 0,0.655 -0.052,1.129 -0.164,1.413 -0.111,0.293 -0.303,0.56 -0.566,0.811 L 0,0 z" />
      </g>
      <g
         transform="matrix(1.25,0,0,-1.25,396.23551,73.154133)"
         id="g2991">
        <path
           inkscape:connector-curvature="0"
           id="path2993"
           style="fill:#231f20;fill-opacity:1;fill-rule:nonzero;stroke:none"
           d="m 0,0 c 0.229,0.208 0.395,0.44 0.496,0.696 0.092,0.252 0.148,0.577 0.148,0.97 l 0,9.482 c 0,0.393 -0.056,0.715 -0.148,0.97 C 0.395,12.366 0.229,12.599 0,12.813 l 0.943,0 c 0.547,0 1.066,0.019 1.558,0.052 0.489,0.037 0.962,0.093 1.425,0.167 l 0,-11.366 C 3.926,1.273 3.975,0.948 4.078,0.696 4.178,0.44 4.344,0.208 4.566,0 L 0,0 z" />
      </g>
      <g
         transform="matrix(1.25,0,0,-1.25,409.75363,67.935633)"
         id="g2995">
        <path
           inkscape:connector-curvature="0"
           id="path2997"
           style="fill:#231f20;fill-opacity:1;fill-rule:nonzero;stroke:none"
           d="m 0,0 c -0.696,-0.27 -1.155,-0.514 -1.392,-0.732 -0.234,-0.219 -0.355,-0.485 -0.355,-0.804 0,-0.34 0.118,-0.614 0.348,-0.811 0.229,-0.192 0.546,-0.295 0.951,-0.295 l 0.148,0 -0.789,-1.658 c -0.273,-0.027 -0.496,-0.037 -0.669,-0.045 -0.174,-0.01 -0.323,-0.014 -0.433,-0.014 -0.911,0 -1.655,0.262 -2.236,0.788 -0.577,0.526 -0.873,1.192 -0.873,1.998 0,0.685 0.221,1.243 0.652,1.688 0.431,0.444 1.08,0.774 1.945,0.981 0.242,0.063 0.57,0.126 0.985,0.211 1.155,0.23 1.733,0.58 1.733,1.047 0,0.282 -0.097,0.496 -0.297,0.64 -0.196,0.148 -0.488,0.218 -0.881,0.218 -0.355,0 -0.733,-0.04 -1.125,-0.129 C -2.68,2.998 -3.095,2.869 -3.539,2.695 l 0.881,1.998 c 0.399,0.115 0.77,0.204 1.11,0.256 0.337,0.055 0.663,0.081 0.978,0.081 0.755,0 1.391,-0.081 1.917,-0.244 C 1.865,4.619 2.287,4.371 2.619,4.034 2.908,3.738 3.112,3.379 3.234,2.976 3.364,2.568 3.419,1.887 3.419,0.929 l 0,-0.162 0,-2.084 c 0,-0.459 0.097,-0.788 0.285,-0.985 0.189,-0.196 0.56,-0.333 1.114,-0.41 l -0.71,-1.57 C 3.863,-4.3 3.656,-4.315 3.486,-4.327 3.316,-4.334 3.179,-4.337 3.068,-4.337 2.161,-4.337 1.421,-4.085 0.852,-3.575 0.284,-3.068 0,-2.401 0,-1.573 L 0,0 z" />
      </g>
      <g
         transform="matrix(1.25,0,0,-1.25,415.73013,78.126633)"
         id="g2999">
        <path
           inkscape:connector-curvature="0"
           id="path3001"
           style="fill:#231f20;fill-opacity:1;fill-rule:nonzero;stroke:none"
           d="M 0,0 1.51,1.913 C 1.651,1.906 1.762,1.895 1.821,1.891 1.888,1.887 1.947,1.887 2.007,1.887 c 0.562,0 1.02,0.178 1.38,0.529 C 3.738,2.768 4.041,3.36 4.286,4.189 3.953,4.367 3.635,4.656 3.338,5.059 3.042,5.458 2.775,5.966 2.524,6.58 l -1.817,4.412 c -0.122,0.288 -0.281,0.596 -0.478,0.906 -0.192,0.319 -0.421,0.637 -0.684,0.967 l 4.119,0 2.021,-5.24 1.028,2.938 c 0.008,0.022 0.023,0.066 0.038,0.118 0.188,0.551 0.281,0.951 0.281,1.184 0,0.133 -0.03,0.27 -0.089,0.415 -0.058,0.133 -0.177,0.333 -0.34,0.585 l 2.787,0 L 5.774,3.357 C 5.289,2.054 4.723,1.162 4.075,0.681 3.427,0.199 2.524,-0.038 1.362,-0.038 1.114,-0.038 0.715,-0.03 0.167,-0.011 0.093,-0.007 0.037,0 0,0" />
      </g>
      <g
         transform="matrix(1.25,0,0,-1.25,428.38763,58.987883)"
         id="g3003">
        <path
           inkscape:connector-curvature="0"
           id="path3005"
           style="fill:#231f20;fill-opacity:1;fill-rule:nonzero;stroke:none"
           d="m 0,0 c 0,0.474 0.171,0.877 0.497,1.203 0.324,0.329 0.732,0.496 1.213,0.496 0.466,0 0.873,-0.167 1.199,-0.5 0.333,-0.333 0.5,-0.728 0.5,-1.199 0,-0.466 -0.167,-0.87 -0.504,-1.199 -0.333,-0.333 -0.732,-0.5 -1.195,-0.5 -0.481,0 -0.889,0.167 -1.213,0.489 C 0.171,-0.873 0,-0.477 0,0 m -0.407,-11.333 c 0.23,0.208 0.392,0.44 0.489,0.696 0.1,0.252 0.148,0.577 0.148,0.97 l 0,5.525 c 0,0.419 -0.048,0.755 -0.156,1.018 -0.103,0.259 -0.266,0.485 -0.503,0.678 l 0.962,0 c 0.608,0 1.152,0.018 1.621,0.048 0.474,0.033 0.929,0.081 1.366,0.151 l 0,-7.42 c 0,-0.393 0.048,-0.718 0.148,-0.97 0.103,-0.256 0.264,-0.488 0.492,-0.696 l -4.567,0 z" />
      </g>
      <g
         transform="matrix(1.25,0,0,-1.25,434.74501,73.154133)"
         id="g3007">
        <path
           inkscape:connector-curvature="0"
           id="path3009"
           style="fill:#231f20;fill-opacity:1;fill-rule:nonzero;stroke:none"
           d="m 0,0 c 0.236,0.208 0.399,0.44 0.495,0.696 0.101,0.252 0.15,0.577 0.15,0.97 l 0,5.525 c 0,0.4 -0.049,0.729 -0.153,0.996 C 0.392,8.446 0.229,8.68 0,8.887 l 0.862,0 c 0.614,0 1.162,0.018 1.636,0.048 0.478,0.033 0.929,0.081 1.361,0.151 L 3.93,8.172 C 4.333,8.491 4.715,8.72 5.085,8.868 5.455,9.016 5.836,9.086 6.231,9.086 7.224,9.086 8.017,8.79 8.598,8.191 9.182,7.595 9.475,6.788 9.475,5.781 l 0,-4.115 C 9.475,1.273 9.526,0.948 9.618,0.696 9.719,0.44 9.878,0.208 10.104,0 L 5.54,0 c 0.229,0.208 0.396,0.44 0.489,0.696 0.1,0.252 0.147,0.577 0.147,0.97 l 0,2.864 C 6.176,5.519 6.084,6.2 5.906,6.592 5.729,6.985 5.426,7.177 5,7.177 4.597,7.177 4.314,7.017 4.166,6.692 4.009,6.366 3.93,5.645 3.93,4.53 l 0,-2.864 C 3.93,1.273 3.982,0.948 4.082,0.696 4.182,0.44 4.344,0.208 4.574,0 L 0,0 z" />
      </g>
      <g
         transform="matrix(1.25,0,0,-1.25,452.44526,65.478383)"
         id="g3011">
        <path
           inkscape:connector-curvature="0"
           id="path3013"
           style="fill:#231f20;fill-opacity:1;fill-rule:nonzero;stroke:none"
           d="m 0,0 c 0,-0.622 0.096,-1.096 0.289,-1.415 0.189,-0.321 0.466,-0.481 0.829,-0.481 0.355,0 0.629,0.116 0.814,0.342 0.184,0.221 0.281,0.543 0.281,0.969 0,0.607 -0.097,1.066 -0.281,1.381 C 1.747,1.107 1.469,1.265 1.103,1.265 0.747,1.265 0.478,1.154 0.289,0.933 0.096,0.71 0,0.399 0,0 m 6.462,2.946 -0.792,-1.77 -1.015,0 C 4.919,0.914 5.104,0.647 5.219,0.381 5.33,0.114 5.385,-0.2 5.385,-0.552 5.385,-1.281 5.17,-1.899 4.738,-2.403 4.308,-2.902 3.693,-3.246 2.901,-3.427 2.554,-3.508 2.102,-3.568 1.544,-3.598 0.859,-3.646 0.511,-3.801 0.511,-4.064 c 0,-0.097 0.048,-0.17 0.151,-0.226 0.101,-0.059 0.234,-0.088 0.403,-0.088 0.105,0 0.36,0.025 0.755,0.07 0.401,0.052 0.748,0.077 1.044,0.077 1.08,0 1.955,-0.255 2.621,-0.766 0.67,-0.503 1.007,-1.162 1.007,-1.965 0,-0.985 -0.474,-1.773 -1.422,-2.347 -0.946,-0.577 -2.239,-0.865 -3.879,-0.865 -1.51,0 -2.671,0.2 -3.487,0.595 -0.813,0.4 -1.221,0.967 -1.221,1.703 0,0.43 0.194,0.799 0.582,1.114 0.381,0.318 0.862,0.474 1.418,0.474 0.159,0 0.332,-0.015 0.525,-0.053 0.188,-0.036 0.467,-0.107 0.829,-0.21 -0.251,-0.104 -0.437,-0.23 -0.566,-0.381 -0.123,-0.156 -0.186,-0.322 -0.186,-0.511 0,-0.319 0.159,-0.578 0.477,-0.785 0.323,-0.204 0.735,-0.303 1.242,-0.303 0.662,0 1.166,0.133 1.509,0.396 0.344,0.262 0.514,0.658 0.514,1.173 0,0.403 -0.154,0.714 -0.473,0.948 -0.319,0.225 -0.755,0.34 -1.325,0.34 -0.17,0 -0.403,-0.011 -0.7,-0.037 -0.299,-0.026 -0.515,-0.037 -0.651,-0.037 -0.471,0 -0.833,0.137 -1.092,0.407 -0.267,0.271 -0.474,0.729 -0.621,1.377 l 1.19,0.569 c -0.754,0.353 -1.317,0.77 -1.694,1.263 -0.377,0.485 -0.57,1.055 -0.57,1.699 0,0.951 0.385,1.75 1.147,2.398 0.762,0.655 1.718,0.981 2.865,0.981 0.178,0 0.541,-0.011 1.084,-0.045 C 2.535,2.872 2.998,2.853 3.368,2.853 l 1.266,0 c 0.191,0 0.429,0.012 0.721,0.022 0.289,0.019 0.66,0.037 1.107,0.071" />
      </g>
      <g
         transform="matrix(1.25,0,0,-1.25,477.55626,67.685383)"
         id="g3015">
        <path
           inkscape:connector-curvature="0"
           id="path3017"
           style="fill:#231f20;fill-opacity:1;fill-rule:nonzero;stroke:none"
           d="m 0,0 c 0,0.681 -0.051,1.162 -0.163,1.447 -0.109,0.285 -0.303,0.544 -0.569,0.781 l 3.945,0 0,-6.322 C 2.532,-4.286 1.881,-4.43 1.267,-4.53 0.655,-4.626 0.063,-4.674 -0.503,-4.674 c -2.217,0 -4.001,0.613 -5.352,1.842 -1.354,1.229 -2.036,2.835 -2.036,4.815 0,1.966 0.675,3.569 2.018,4.79 1.343,1.218 3.12,1.828 5.321,1.828 0.457,0 0.907,-0.033 1.338,-0.085 C 1.221,8.457 1.659,8.368 2.088,8.242 L 2.317,5.67 C 1.695,5.995 1.147,6.225 0.674,6.366 0.192,6.51 -0.272,6.58 -0.732,6.58 -1.851,6.58 -2.724,6.203 -3.36,5.441 -3.981,4.67 -4.301,3.608 -4.301,2.247 c 0,-1.462 0.32,-2.632 0.955,-3.509 0.634,-0.874 1.482,-1.314 2.543,-1.314 0.145,0 0.284,0.003 0.418,0.018 0.126,0.011 0.259,0.034 0.385,0.056 L 0,0 z" />
      </g>
      <g
         transform="matrix(1.25,0,0,-1.25,490.08438,67.935633)"
         id="g3019">
        <path
           inkscape:connector-curvature="0"
           id="path3021"
           style="fill:#231f20;fill-opacity:1;fill-rule:nonzero;stroke:none"
           d="m 0,0 c -0.688,-0.27 -1.154,-0.514 -1.391,-0.732 -0.233,-0.219 -0.348,-0.485 -0.348,-0.804 0,-0.34 0.111,-0.614 0.348,-0.811 0.23,-0.192 0.548,-0.295 0.947,-0.295 l 0.148,0 -0.789,-1.658 c -0.269,-0.027 -0.499,-0.037 -0.669,-0.045 -0.174,-0.01 -0.319,-0.014 -0.433,-0.014 -0.906,0 -1.654,0.262 -2.236,0.788 -0.58,0.526 -0.869,1.192 -0.869,1.998 0,0.685 0.215,1.243 0.648,1.688 0.432,0.444 1.078,0.774 1.943,0.981 0.244,0.063 0.577,0.126 0.988,0.211 1.158,0.23 1.732,0.58 1.732,1.047 0,0.282 -0.1,0.496 -0.292,0.64 -0.201,0.148 -0.497,0.218 -0.885,0.218 -0.359,0 -0.733,-0.04 -1.129,-0.129 C -2.679,2.998 -3.093,2.869 -3.53,2.695 l 0.877,1.998 c 0.399,0.115 0.77,0.204 1.107,0.256 0.34,0.055 0.665,0.081 0.981,0.081 C 0.193,5.03 0.83,4.949 1.348,4.786 1.866,4.619 2.295,4.371 2.624,4.034 2.909,3.738 3.118,3.379 3.239,2.976 3.368,2.568 3.429,1.887 3.429,0.929 l 0,-0.162 0,-2.084 c 0,-0.459 0.094,-0.788 0.28,-0.985 0.192,-0.196 0.562,-0.333 1.113,-0.41 L 4.109,-4.282 C 3.868,-4.3 3.664,-4.315 3.491,-4.327 3.319,-4.334 3.184,-4.337 3.073,-4.337 2.161,-4.337 1.43,-4.085 0.859,-3.575 0.289,-3.068 0,-2.401 0,-1.573 L 0,0 z" />
      </g>
      <g
         transform="matrix(1.25,0,0,-1.25,496.85801,73.154133)"
         id="g3023">
        <path
           inkscape:connector-curvature="0"
           id="path3025"
           style="fill:#231f20;fill-opacity:1;fill-rule:nonzero;stroke:none"
           d="m 0,0 c 0.229,0.208 0.396,0.44 0.493,0.696 0.1,0.252 0.148,0.577 0.148,0.97 l 0,5.525 c 0,0.4 -0.048,0.729 -0.153,0.996 C 0.389,8.446 0.222,8.68 0,8.887 l 0.858,0 c 0.637,0 1.193,0.018 1.663,0.055 0.469,0.041 0.914,0.103 1.336,0.182 L 3.931,8.228 C 4.305,8.539 4.692,8.765 5.078,8.905 5.463,9.05 5.892,9.124 6.344,9.124 6.906,9.124 7.41,9.02 7.865,8.824 8.313,8.62 8.738,8.306 9.134,7.873 c 0.571,0.443 1.096,0.762 1.577,0.958 0.481,0.193 0.977,0.293 1.488,0.293 0.978,0 1.762,-0.3 2.362,-0.896 0.595,-0.596 0.891,-1.392 0.891,-2.391 l 0,-4.171 c 0,-0.393 0.049,-0.718 0.149,-0.97 C 15.692,0.44 15.859,0.208 16.093,0 l -4.568,0 c 0.227,0.208 0.385,0.44 0.486,0.696 0.092,0.252 0.143,0.577 0.143,0.97 l 0,3.175 c 0,0.845 -0.096,1.447 -0.292,1.799 -0.193,0.359 -0.514,0.537 -0.959,0.537 -0.436,0 -0.748,-0.16 -0.932,-0.485 C 9.786,6.366 9.689,5.792 9.689,4.978 l 0,-3.312 C 9.689,1.273 9.737,0.948 9.83,0.696 9.934,0.44 10.096,0.208 10.33,0 L 5.759,0 c 0.229,0.208 0.392,0.44 0.491,0.696 0.102,0.252 0.153,0.577 0.153,0.97 l 0,3.175 C 6.403,5.686 6.307,6.288 6.111,6.64 5.915,6.999 5.592,7.177 5.145,7.177 4.7,7.177 4.389,7.017 4.205,6.692 4.02,6.366 3.931,5.792 3.931,4.978 l 0,-3.312 C 3.931,1.273 3.979,0.948 4.078,0.696 4.182,0.44 4.342,0.208 4.566,0 L 0,0 z" />
      </g>
      <g
         transform="matrix(1.25,0,0,-1.25,525.47251,65.524753)"
         id="g3027">
        <path
           inkscape:connector-curvature="0"
           id="path3029"
           style="fill:#231f20;fill-opacity:1;fill-rule:nonzero;stroke:none"
           d="m 0,0 c 0,0.447 -0.093,0.789 -0.293,1.025 -0.191,0.233 -0.48,0.348 -0.866,0.348 -0.37,0 -0.666,-0.118 -0.881,-0.367 C -2.254,0.77 -2.372,0.425 -2.395,0 L 0,0 z m 3.283,-1.654 -5.752,0 c 0,-0.037 0,-0.093 -0.008,-0.167 0,-0.074 -0.007,-0.122 -0.007,-0.144 0,-0.8 0.245,-1.425 0.733,-1.873 0.488,-0.448 1.159,-0.674 2.018,-0.674 0.373,0 0.817,0.074 1.309,0.222 0.5,0.152 1.1,0.393 1.811,0.737 L 2.713,-5.73 C 2.039,-5.955 1.447,-6.118 0.922,-6.218 0.399,-6.322 -0.111,-6.369 -0.61,-6.369 c -1.637,0 -2.936,0.429 -3.887,1.276 -0.955,0.848 -1.429,1.988 -1.429,3.416 0,1.396 0.459,2.543 1.377,3.446 0.914,0.896 2.08,1.351 3.49,1.351 1.281,0 2.321,-0.422 3.128,-1.255 0.806,-0.836 1.214,-1.928 1.214,-3.275 l 0,-0.244 z" />
      </g>
    </g>
  </g>
</svg>
